<?xml version="1.0" encoding="UTF-8" standalone="no"?>
<svg
   xmlns:dc="http://purl.org/dc/elements/1.1/"
   xmlns:cc="http://creativecommons.org/ns#"
   xmlns:rdf="http://www.w3.org/1999/02/22-rdf-syntax-ns#"
   xmlns:svg="http://www.w3.org/2000/svg"
   xmlns="http://www.w3.org/2000/svg"
   xmlns:sodipodi="http://sodipodi.sourceforge.net/DTD/sodipodi-0.dtd"
   xmlns:inkscape="http://www.inkscape.org/namespaces/inkscape"
   width="1080"
   height="1080"
   viewBox="0 0 285.75001 285.74999"
   version="1.1"
   id="svg8"
   inkscape:version="1.0.1 (3bc2e813f5, 2020-09-07)"
   sodipodi:docname="Innalillah-CC-BY-.svg">
  <defs
     id="defs2" />
  <sodipodi:namedview
     id="base"
     pagecolor="#ffffff"
     bordercolor="#666666"
     borderopacity="1.0"
     inkscape:pageopacity="0.0"
     inkscape:pageshadow="2"
     inkscape:zoom="0.71014439"
     inkscape:cx="569.58662"
     inkscape:cy="445.23615"
     inkscape:document-units="px"
     inkscape:current-layer="layer1"
     showgrid="false"
     units="px"
     inkscape:document-rotation="0"
     inkscape:snap-global="false" />
  <metadata
     id="metadata5">
    <rdf:RDF>
      <cc:Work
         rdf:about="">
        <dc:format>image/svg+xml</dc:format>
        <dc:type
           rdf:resource="http://purl.org/dc/dcmitype/StillImage" />
        <dc:title></dc:title>
      </cc:Work>
    </rdf:RDF>
  </metadata>
  <g
     inkscape:label="Layer 1"
     inkscape:groupmode="layer"
     id="layer1"
     transform="translate(0,-11.249989)">
    <path
       id="path110"
       style="fill:#000000;stroke:none;stroke-width:0.0999999"
       d="M 319.99219 426.94531 C 319.1917 427.98695 317.65424 429.67793 315.85156 431.63867 L 316.48828 430.65039 C 316.48828 430.65039 316.06696 431.29379 315.38086 432.15234 C 314.74379 432.84384 314.18393 433.45951 313.46289 434.24219 C 311.73989 435.8597 309.40791 437.41406 306.77734 437.41406 C 298.3929 437.41406 296.43708 427.07617 284.5293 427.07617 C 274.22045 427.07617 269.71289 444.55975 269.71289 469.52148 C 269.71289 477.80795 270.46156 486.63175 271.62695 495.35156 C 266.50477 501.58661 261.25551 505.46493 257.08594 505.99609 L 257.11719 505.78125 C 257.11719 505.78125 257.79429 486.93359 251.05273 486.93359 C 241.13802 486.93359 231.11659 500.94901 229.45117 507.16406 L 229.33594 525.9375 C 229.31798 528.88833 230.91945 528.12693 232.30078 527.32812 C 236.55784 524.86728 240.21776 523.83581 243.52734 525.29492 C 238.40985 531.32951 229.83504 539.65168 223.67383 542.30469 C 222.16132 536.96482 215.23568 525.38477 205.05859 525.38477 C 198.64757 525.38477 197.32812 534.00622 197.32812 537.38867 L 197.48828 555.74414 C 197.50831 558.43736 200.7498 569.01953 209.06836 569.01953 C 211.72156 569.01953 216.36182 567.86886 220.16406 565.71875 C 220.8131 567.036 221.36202 568.75186 221.43359 570.87891 C 221.84836 583.21967 208.37943 614.51744 150.88281 623.11719 L 150.82422 625.55664 C 162.30711 625.50713 194.84246 625.94942 210.51172 617.0625 C 221.57052 610.79015 228.87425 592.66486 225.74609 562.54492 C 241.94812 553.09334 250.5455 538.22017 254.38477 527.63672 C 262.60782 527.2824 268.9583 521.43207 274.58398 513.33398 C 277.77188 529.90206 281.59486 543.81031 283.61719 550.75781 C 282.49842 554.5749 276.99023 569.3418 276.99023 569.3418 C 284.86297 572.02537 289.95051 572.43945 296.56445 578.4707 L 298.47266 578.37109 L 305.69922 558.87305 L 285.9375 550.74805 C 284.80503 544.77453 281.48382 527.04768 278.21289 507.70898 C 282.17305 501.10872 285.87572 493.67008 289.7793 486.68555 C 298.01103 471.95677 321.74875 448.40946 321.82812 448.0625 C 321.91146 447.71471 321.65625 427.30273 321.65625 427.30273 L 319.99219 426.94531 z M 181.34961 428.61914 C 180.58724 428.46975 179.66202 429.74225 179.34375 432.88086 C 176.16245 464.26008 136.7468 484.93568 109.13672 520.25 C 100.96978 530.69578 95.754245 545.16705 90.419922 558.14844 C 84.959884 571.43574 80.588097 583.38565 81.179688 594.54883 C 82.268996 615.1039 92.627745 631.64844 110.57227 631.64844 C 149.24888 631.64844 162.84375 580.39714 162.84375 562.01953 C 162.84375 551.66775 156.45375 530.95329 135.51367 531.08984 C 118.29529 531.2021 112.83343 557.85106 112.54102 558.74609 C 111.28826 562.57976 115.14537 564.49242 115.14648 559.57812 C 115.14648 559.57812 115.14648 559.57617 115.14648 559.57617 C 115.14865 558.63016 118.04986 551.45703 129.35547 551.45703 C 140.66541 551.45703 158.14973 562.00234 153.55078 589.70703 C 146.05094 602.30529 132.1043 612.28711 119.08984 612.28711 C 106.07549 612.28711 89.742188 605.88703 89.742188 572.125 C 89.742188 561.97799 102.26407 539.59778 111.42773 530.39648 C 135.07947 506.64782 175.87861 482.57662 182.37695 432.89258 C 182.71085 430.34019 182.11198 428.76853 181.34961 428.61914 z M 545.62891 433.89844 C 544.9264 434.00424 543.79297 435.35547 543.79297 435.35547 C 543.47753 473.24485 547.21636 509.04889 548.92773 545.89648 C 550.34411 545.699 551.68359 544.26939 551.68359 540.57422 C 551.68359 540.57422 547.78117 463.23634 547.67383 462.31055 C 547.56664 461.38479 577.0957 518.20204 577.0957 546.34766 C 577.0957 576.96198 543.86202 610.57429 502.51758 619.0625 L 503.04883 621.08789 C 584.88762 616.53624 580.01758 569.04892 580.01758 534.60352 C 580.01758 500.15815 546.4525 435.65282 546.13086 434.30273 C 546.05046 433.96523 545.86307 433.86317 545.62891 433.89844 z M 964.43164 435.17969 C 963.72914 435.2855 962.5957 436.63672 962.5957 436.63672 C 962.28026 474.52607 966.0191 510.33213 967.73047 547.17969 C 969.14685 546.98224 970.48438 545.55068 970.48438 541.85547 C 970.48438 541.85547 966.58195 464.51759 966.47461 463.5918 C 966.36742 462.66604 995.89648 519.48329 995.89648 547.62891 C 995.89648 578.24327 962.66472 611.85554 921.32031 620.34375 L 921.85156 622.36914 C 1003.6904 617.81753 998.82031 570.33212 998.82031 535.88672 C 998.82031 501.44131 965.25328 436.93602 964.93164 435.58594 C 964.85124 435.24844 964.66581 435.14442 964.43164 435.17969 z M 498.19922 439.05664 C 497.83907 439.1361 496.20898 439.28125 496.20898 439.28125 C 496.20898 439.28125 497.09616 468.23338 500.62109 521.77148 C 500.93555 526.54544 501.54282 530.38849 503.36523 531.78125 L 500.73047 471.06055 C 500.73047 471.06055 516.92773 511.79828 516.92773 524.50195 C 516.92773 531.78296 510.18116 547.39305 500.0918 558.12695 C 500.68709 553.26644 500.78659 549.1196 500.48438 546.6543 C 500.28009 544.98737 498.41992 545.23569 498.41992 547.66211 C 498.41992 549.53657 491.73334 577.23633 471.0625 577.23633 C 466.51066 577.23633 462.59469 574.47258 460.99414 570.4043 C 458.75847 564.7217 456.08426 562.38734 452.05078 562.34766 C 443.50965 562.34766 433.53186 579.57952 430.37305 597.83203 C 427.63671 613.6435 430.13403 626.7832 421.04102 626.7832 C 411.79807 626.7832 398.5918 610.18604 398.5918 591.66016 C 398.5918 581.32561 401.08465 570.27746 404.72656 559.26758 C 405.67942 556.38724 403.97584 556.28983 402.8125 559.68555 C 400.27984 567.07902 394.89648 581.26465 394.89648 600.23047 C 394.89648 618.1771 404.91892 647.70898 420.06836 647.70898 C 430.59491 647.70898 428.42136 634.04803 432.41602 616.18164 C 436.28387 598.88195 445.703 583.29883 452.26562 583.29883 C 459.39774 583.29883 458.46658 598.24352 472.10156 598.2832 C 480.81026 598.30934 487.09648 592.90199 491.52344 585.50781 C 496.08991 583.2869 520.14281 566.95546 519.94141 532.71094 L 519.85156 517.51953 C 519.70794 491.72686 502.15132 449.42918 498.19922 439.05664 z M 587.5332 443.79883 L 588.01758 465.1582 C 594.16116 467.74786 601.50037 491.28273 607.86914 518.32227 C 616.28388 554.04791 621.71312 595.17969 643.70312 595.17969 C 664.67414 595.17969 660.91211 543.27734 660.91211 543.27734 L 660.91016 543.27734 C 660.91016 540.06482 658.58398 540.91665 658.58398 542.22656 C 658.58398 542.22656 657.5776 574.04297 644.19531 574.04297 C 611.10022 574.04297 611.96479 452.45633 587.5332 443.79883 z M 884.09961 443.91406 L 884.58398 465.27344 C 890.72761 467.86309 898.06678 491.39797 904.43555 518.4375 C 912.85025 554.16314 918.27952 595.29492 940.26953 595.29492 C 961.24058 595.29492 957.47852 543.39258 957.47852 543.39258 L 957.47656 543.39258 C 957.47656 540.18002 955.15039 541.03189 955.15039 542.3418 C 955.15039 542.3418 954.14401 574.1582 940.76172 574.1582 C 907.66659 574.1582 908.53116 452.57156 884.09961 443.91406 z M 284.32812 448.49805 C 289.08972 448.49805 293.84102 451.45317 296.82617 453.75195 C 291.54175 460.69568 286.51687 468.34876 283.15625 476.08203 C 280.84924 481.39076 278.1852 486.1686 275.38867 490.29688 C 273.96495 480.90786 272.98242 473.14006 272.98242 469.52344 C 272.98242 457.36919 278.17191 448.49805 284.32812 448.49805 z M 335.77539 468.31445 L 334.04492 469.35938 L 329.5625 482.83203 C 329.58665 482.84579 329.61572 482.87611 329.64062 482.89258 C 321.54964 507.62856 318.50094 528.26981 318.60156 551.49219 L 318.72266 579.35352 C 318.73731 582.72706 318.95324 585.98661 319.33203 589.12695 C 301.18304 606.77571 277.10835 619.49981 257.89062 620.87109 L 257.85156 622.67578 C 288.97018 626.03559 309.59171 617.96896 323.25781 605.64844 C 329.08662 621.3087 339.80707 631.15713 351.0957 631.24023 C 367.83323 631.36299 374.13171 616.95309 378.81641 576.6543 C 383.50109 536.35546 402.3131 532.96 403.79883 532.99023 C 405.28411 533.0244 405.62891 534.31055 405.62891 534.31055 C 405.9973 535.68539 407.2849 534.81038 407.27734 532.52539 L 407.22852 514.63281 C 406.98976 513.74186 405.65363 512.04102 403.32227 512.04102 C 393.17639 512.04102 375.73242 535.94471 375.73242 568.80078 C 375.73242 580.55553 370.24664 610.12695 349.45898 610.12695 C 340.59847 610.12695 334.48848 605.34376 330.34961 598.18164 C 349.68661 574.42177 350.07264 541.94641 349.98047 538.24219 L 349.57422 521.88867 C 349.20212 506.9129 344.14455 489.43275 335.77539 468.31445 z M 819.82422 472.875 C 819.26529 472.893 818.90625 474.44531 818.90625 474.44531 L 819.22461 494.75195 L 836.33984 549.83008 C 838.72692 558.73895 840.28784 589.35851 816.00195 589.47266 C 804.17695 589.53706 800.67312 562.99251 795.86719 562.54297 C 786.4861 562.54297 778.13847 588.17316 775.1582 606.77539 C 774.15878 613.01354 773.63654 628.75195 763.21094 628.75195 C 754.56862 628.75195 747.88674 612.58528 747.03516 575.5 C 748.05009 569.289 748.57437 562.13178 748.44922 553.87695 L 748.35938 547.98242 C 747.99182 523.72591 736.56082 516.28831 731.0293 515.96289 C 726.76263 515.71185 724.51133 528.68397 724.7793 537.47852 C 725.04734 546.27306 726.04707 561.46977 733.42188 561.20898 C 741.05478 560.93909 742.97266 547.77539 742.97266 547.77539 L 742.97461 547.77539 C 742.97461 547.77539 744.80564 549.46693 745.29883 556.86328 C 745.79198 564.25951 734.63343 591.39273 714.69336 591.01172 C 706.72775 590.8597 700.78918 587.92417 696.36133 583.41797 C 701.96919 568.15736 701.06055 550.79956 701.06055 535.88477 C 701.06055 523.64756 696.80132 507.62199 691.32422 491.97656 C 691.10171 492.70062 691.08761 492.74384 690.88086 493.41602 L 688.62695 484.5293 L 687.85352 484.63086 C 687.85352 484.63086 681.16519 520.18368 681.10547 535.88281 C 681.05123 549.47491 681.28252 567.2827 685.12695 582.26172 C 671.7185 600.14608 649.20306 615.07921 623.56055 620.34375 L 624.09375 622.36914 C 660.6688 620.33495 679.91743 609.72179 690.0293 595.5332 C 695.16413 605.36129 703.22098 612.01562 715.85352 612.01562 C 726.03507 612.01562 738.38528 605.74757 744.55664 586.12305 C 744.2721 608.82633 746.26702 649.80859 764.53516 649.80859 C 774.21657 649.80859 774.3797 636.74606 777.9707 618.83594 C 782.56064 595.94421 791.93065 584.11523 795.11328 584.11523 C 799.25133 584.11523 802.53573 610.14023 815.62695 610.36133 C 835.18862 610.69176 843.23967 584.46435 840.66797 561.94141 C 843.9732 571.30097 853.50508 594.88755 865.96484 594.88867 C 887.45248 594.89056 892.89528 553.18013 884.04102 532.32031 L 860.38867 476.59766 L 858.14453 481.75195 L 859.08789 525.13086 L 861.15039 529.64453 L 862.56641 506.15039 C 862.29352 507.20049 883.00208 549.35479 884.41211 559.9375 C 882.00149 567.83354 875.13334 573.9838 865.26367 573.58789 C 845.12446 572.78017 829.12472 496.11643 820.69531 474.0918 C 820.37317 473.1755 820.07828 472.86682 819.82422 472.875 z M 334.69336 491.9707 C 339.71301 503.79737 346.00603 524.21488 346.12695 536.39258 C 346.28814 552.62651 337.63266 569.21873 324.89648 583.36133 C 323.08127 575.31019 322.43164 566.52147 322.43164 558.62109 C 322.43164 537.75297 332.08635 501.40697 334.69336 491.9707 z M 630.16797 494.00781 C 630.02117 494.01226 629.92185 494.03369 629.87695 494.07227 L 630.01953 515.62305 L 644.80273 518.47852 L 645.99219 517.32031 L 646.03125 498.22852 L 645.24805 497.47461 C 645.24805 497.47461 632.36988 493.94107 630.16797 494.00781 z M 926.73242 494.12305 C 926.58563 494.1275 926.4863 494.14893 926.44141 494.1875 L 926.58594 515.74023 L 941.36914 518.59375 L 942.55859 517.4375 L 942.59766 498.34375 L 941.81445 497.5918 C 941.81445 497.5918 928.93434 494.05631 926.73242 494.12305 z M 688.98047 509.00781 C 694.07189 522.8937 698.13867 537.21127 698.13867 547.62695 C 698.13867 556.57007 695.28387 565.7657 690.23828 574.51953 C 684.26042 562.23851 683.62482 546.03792 683.86328 536.625 C 684.09876 527.33845 686.72135 516.66325 688.98047 509.00781 z M 115.94922 564.32422 C 115.96925 565.40418 109.10938 583.78516 109.10938 583.78516 C 116.9821 586.4687 125.0716 588.57222 131.68555 594.60352 L 133.59375 594.50391 L 140.82031 575.00586 L 115.94922 564.32422 z M 475.95312 623.23438 C 470.27424 623.22954 464.42038 623.63458 458.23242 624.82031 L 451.67188 643.81641 C 451.48328 644.87078 452.04796 645.04537 452.6582 645.16602 C 463.00772 642.418 474.59141 643.66071 485.20508 644.14453 L 492.62305 624.10547 C 487.13572 623.65251 481.63201 623.23921 475.95312 623.23438 z M 546.83398 627.43164 C 542.86317 627.49093 537.57617 636.62529 537.57617 641.61133 C 537.57617 645.53108 549.5753 642.3673 551.32031 644.31641 C 551.56141 648.06279 537.82812 652.02344 537.82812 652.02344 L 538.18359 653.05273 C 538.18359 653.05273 545.86163 653.2143 548.94531 650.79102 C 552.24624 648.19701 554.33594 642.31916 554.33594 639.70312 C 554.33594 637.4915 554.36057 636.81607 548.41602 637.02734 C 544.60437 637.08733 542.52536 636.592 541.38477 636.02539 C 543.02026 634.41377 544.98828 634.82031 544.98828 634.82031 L 547.60938 627.54492 C 547.3583 627.46428 547.09871 627.42769 546.83398 627.43164 z M 665.81641 627.43164 C 661.8456 627.49093 656.55859 636.62529 656.55859 641.61133 C 656.55859 645.53108 668.55773 642.3673 670.30273 644.31641 C 670.54383 648.06279 656.81055 652.02344 656.81055 652.02344 L 657.16602 653.05273 C 657.16602 653.05273 664.84413 653.2143 667.92773 650.79102 C 671.22874 648.19701 673.31641 642.31916 673.31641 639.70312 C 673.31641 637.4915 673.34303 636.81607 667.39844 637.02734 C 663.58944 637.08729 661.5083 636.59345 660.36719 636.02734 C 662.00279 634.41513 663.96875 634.82031 663.96875 634.82031 L 666.58984 627.54492 C 666.33877 627.46428 666.08113 627.42769 665.81641 627.43164 z M 966.9707 627.43164 C 962.99989 627.49093 957.71289 636.62529 957.71289 641.61133 C 957.71289 645.53108 969.71202 642.3673 971.45703 644.31641 C 971.69817 648.06279 957.96484 652.02344 957.96484 652.02344 L 958.32031 653.05273 C 958.32031 653.05273 965.99835 653.2143 969.08203 650.79102 C 972.383 648.19701 974.4707 642.31916 974.4707 639.70312 C 974.4707 637.4915 974.49733 636.81607 968.55273 637.02734 C 964.7409 637.08734 962.66008 636.59203 961.51953 636.02539 C 963.15503 634.41377 965.12305 634.82031 965.12305 634.82031 L 967.74414 627.54492 C 967.49307 627.46428 967.23542 627.42769 966.9707 627.43164 z "
       transform="matrix(0.26458333,0,0,0.26458333,0,11.249989)" />
  </g>
</svg>
