<?xml version="1.0" encoding="UTF-8" standalone="no"?>
<svg
   xmlns:dc="http://purl.org/dc/elements/1.1/"
   xmlns:cc="http://creativecommons.org/ns#"
   xmlns:rdf="http://www.w3.org/1999/02/22-rdf-syntax-ns#"
   xmlns:svg="http://www.w3.org/2000/svg"
   xmlns="http://www.w3.org/2000/svg"
   xmlns:sodipodi="http://sodipodi.sourceforge.net/DTD/sodipodi-0.dtd"
   xmlns:inkscape="http://www.inkscape.org/namespaces/inkscape"
   width="1080"
   height="1080"
   viewBox="0 0 285.75001 285.74999"
   version="1.1"
   id="svg8"
   inkscape:version="1.0.1 (3bc2e813f5, 2020-09-07)"
   sodipodi:docname="Innalillah_CC-BY.svg">
  <defs
     id="defs2" />
  <sodipodi:namedview
     id="base"
     pagecolor="#ffffff"
     bordercolor="#666666"
     borderopacity="1.0"
     inkscape:pageopacity="0.0"
     inkscape:pageshadow="2"
     inkscape:zoom="1.6330486"
     inkscape:cx="335.21112"
     inkscape:cy="542.38106"
     inkscape:document-units="px"
     inkscape:current-layer="layer1"
     showgrid="false"
     units="px"
     inkscape:document-rotation="0"
     inkscape:snap-global="false" />
  <metadata
     id="metadata5">
    <rdf:RDF>
      <cc:Work
         rdf:about="">
        <dc:format>image/svg+xml</dc:format>
        <dc:type
           rdf:resource="http://purl.org/dc/dcmitype/StillImage" />
        <dc:title />
      </cc:Work>
    </rdf:RDF>
  </metadata>
  <g
     inkscape:label="Layer 1"
     inkscape:groupmode="layer"
     id="layer1"
     transform="translate(0,-11.249989)">
    <path
       id="path110"
       style="fill:#000000;stroke:none;stroke-width:0.0999999"
       d="m 331.99219,426.94531 c -0.80049,1.04164 -2.33795,2.73262 -4.14063,4.69336 l 0.63672,-0.98828 c 0,0 -0.42132,0.6434 -1.10742,1.50195 -0.63707,0.6915 -1.19693,1.30717 -1.91797,2.08985 -1.723,1.61751 -4.05498,3.17187 -6.68555,3.17187 -8.38444,0 -10.34026,-10.33789 -22.24804,-10.33789 -10.30885,0 -14.81641,17.48358 -14.81641,42.44531 0,8.28647 0.74867,17.11027 1.91406,25.83008 -5.12218,6.23505 -10.37144,10.11337 -14.54101,10.64453 l 0.0312,-0.21484 c 0,0 0.6771,-18.84766 -6.06446,-18.84766 -9.91471,0 -19.93614,14.01542 -21.60156,20.23047 l -0.11523,18.77344 c -0.018,2.95083 1.58351,2.18943 2.96484,1.39062 4.25706,-2.46084 7.91698,-3.49231 11.22656,-2.0332 -5.11749,6.03459 -13.6923,14.35676 -19.85351,17.00977 -1.51251,-5.33987 -8.43815,-16.91992 -18.61524,-16.91992 -6.41102,0 -7.73047,8.62145 -7.73047,12.0039 l 0.16016,18.35547 c 0.02,2.69322 3.26152,13.27539 11.58008,13.27539 2.6532,0 7.29346,-1.15067 11.0957,-3.30078 0.64904,1.31725 1.19796,3.03311 1.26953,5.16016 0.41477,12.34076 -13.05416,43.63853 -70.55078,52.23828 l -0.0586,2.43945 c 11.48289,-0.0495 44.01824,0.39278 59.6875,-8.49414 11.0588,-6.27235 18.36253,-24.39764 15.23437,-54.51758 16.20203,-9.45158 24.79941,-24.32475 28.63868,-34.9082 8.22305,-0.35432 14.57353,-6.20465 20.19921,-14.30274 3.1879,16.56808 7.01088,30.47633 9.03321,37.42383 -1.11877,3.81709 -6.62696,18.58399 -6.62696,18.58399 7.87274,2.68357 13.11284,4.33182 20.27949,9.1289 l 1.20294,-0.0996 7.22656,-19.49804 c -6.64181,-3.65208 -13.26187,-6.92791 -19.76172,-8.125 -1.13247,-5.97352 -4.45368,-23.70037 -7.72461,-43.03907 3.96016,-6.60026 7.66283,-14.0389 11.56641,-21.02343 8.23173,-14.72878 31.96945,-38.27609 32.04882,-38.62305 0.0833,-0.34779 -0.17187,-20.75977 -0.17187,-20.75977 z m -136.64258,-2.32617 c 0,0.77687 -1.68759,1.12311 -2.00586,4.26172 -3.1813,31.37922 -42.59695,52.05482 -70.20703,87.36914 -8.16694,10.44578 -13.38247,24.91705 -18.7168,37.89844 -5.460036,13.2873 -9.831823,25.23721 -9.240232,36.40039 1.089308,20.55507 11.448062,37.09961 29.392582,37.09961 38.67661,0 52.27148,-51.2513 52.27148,-69.62891 0,-10.35178 -6.39,-31.06624 -27.33008,-30.92969 -17.21838,0.11226 -22.68024,26.76122 -22.97265,27.65625 -1.25276,3.83367 2.60546,5.74633 2.60546,0.83203 v -0.002 c 0,-0.94601 2.90338,-8.11914 14.20899,-8.11914 11.30994,0 28.79426,10.54531 24.19531,38.25 -7.49984,12.59826 -21.44648,22.58008 -34.46094,22.58008 -13.01435,0 -29.34765,-6.40008 -29.34765,-40.16211 0,-10.14701 12.52188,-32.52722 21.68554,-41.72852 23.65174,-23.74866 64.45088,-47.81986 70.94922,-97.5039 0.3339,-2.55239 -1.02734,-5.05031 -1.02734,-4.27344 z m 350.2793,9.2793 c -0.70251,0.1058 -1.83594,1.45703 -1.83594,1.45703 -0.31544,37.88938 3.42339,73.69342 5.13476,110.54101 1.41638,-0.19748 2.75586,-1.62709 2.75586,-5.32226 0,0 -3.90242,-77.33788 -4.00976,-78.26367 -0.10719,-0.92576 29.42187,55.89149 29.42187,84.03711 0,30.61432 -33.23368,64.22663 -74.57812,72.71484 l 0.53125,2.02539 c 81.83879,-4.55165 76.96875,-52.03897 76.96875,-86.48437 0,-34.44537 -33.56508,-98.9507 -33.88672,-100.30079 -0.0804,-0.3375 -0.26779,-0.43956 -0.50195,-0.40429 z m 418.80273,1.28125 c -0.7025,0.10581 -1.83594,1.45703 -1.83594,1.45703 -0.31544,37.88935 3.4234,73.69541 5.13477,110.54297 1.41638,-0.19745 2.75391,-1.62901 2.75391,-5.32422 0,0 -3.90243,-77.33788 -4.00977,-78.26367 -0.10719,-0.92576 29.42187,55.89149 29.42187,84.03711 0,30.61436 -33.23176,64.22663 -74.57617,72.71484 l 0.53125,2.02539 c 81.83884,-4.55161 76.96875,-52.03702 76.96875,-86.48242 0,-34.44541 -33.56703,-98.9507 -33.88867,-100.30078 -0.0804,-0.3375 -0.26583,-0.44152 -0.5,-0.40625 z m -458.23242,3.87695 c -0.36015,0.0795 -1.99024,0.22461 -1.99024,0.22461 0,0 0.88718,28.95213 4.41211,82.49023 0.31446,4.77396 0.92173,8.61701 2.74414,10.00977 l -2.63476,-60.7207 c 0,0 16.19726,40.73773 16.19726,53.4414 0,7.28101 -6.74657,22.8911 -16.83593,33.625 0.59529,-4.86051 0.69479,-9.00735 0.39258,-11.47265 -0.20429,-1.66693 -2.06446,-1.41861 -2.06446,1.00781 0,1.87446 -6.68658,29.57422 -27.35742,29.57422 -4.55184,0 -8.46781,-2.76375 -10.06836,-6.83203 -2.23567,-5.6826 -4.90988,-8.01696 -8.94336,-8.05664 -8.54113,0 -18.51892,17.23186 -21.67773,35.48437 -2.73634,15.81147 -0.23902,28.95117 -9.33203,28.95117 -9.24295,0 -22.44922,-16.59716 -22.44922,-35.12304 0,-10.33455 2.49285,-21.3827 6.13476,-32.39258 0.95286,-2.88034 -0.75072,-2.97775 -1.91406,0.41797 -2.53266,7.39347 -7.91602,21.5791 -7.91602,40.54492 0,17.94663 10.02244,47.47851 25.17188,47.47851 10.52655,0 8.353,-13.66095 12.34766,-31.52734 3.86785,-17.29969 13.28698,-32.88281 19.8496,-32.88281 7.13212,0 6.20096,14.94469 19.83594,14.98437 8.7087,0.0261 14.99492,-5.38121 19.42188,-12.77539 4.56647,-2.22091 28.61937,-18.55235 28.41797,-52.79687 l -0.0899,-15.19141 c -0.14362,-25.79267 -17.70024,-68.09035 -21.65234,-78.46289 z m 81.33398,4.74219 0.48438,21.35937 c 6.14358,2.58966 13.48279,26.12453 19.85156,53.16407 8.41474,35.72564 13.84398,76.85742 35.83398,76.85742 20.97102,0 17.20899,-51.90235 17.20899,-51.90235 h -0.002 c 0,-3.21252 -2.32618,-2.36069 -2.32618,-1.05078 0,0 -1.00638,31.81641 -14.38867,31.81641 -33.09509,0 -32.23052,-121.58664 -56.66211,-130.24414 z m 296.56641,0.11523 0.48437,21.35938 c 6.14363,2.58965 13.4828,26.12453 19.85157,53.16406 8.4147,35.72564 13.84397,76.85742 35.83398,76.85742 20.97105,0 17.20899,-51.90234 17.20899,-51.90234 h -0.002 c 0,-3.21256 -2.32617,-2.36069 -2.32617,-1.05078 0,0 -1.00638,31.8164 -14.38867,31.8164 -33.09513,0 -32.23056,-121.58664 -56.66211,-130.24414 z m -587.77149,4.58399 c 4.7616,0 9.5129,2.95512 12.49805,5.2539 -5.28442,6.94373 -10.3093,14.59681 -13.66992,22.33008 -2.30701,5.30873 -4.97105,10.08657 -7.76758,14.21485 -1.42372,-9.38902 -2.40625,-17.15682 -2.40625,-20.77344 0,-12.15425 5.18949,-21.02539 11.3457,-21.02539 z m 51.44727,19.8164 -1.73047,1.04493 -4.48242,13.47265 c 0.0242,0.0138 0.0532,0.0441 0.0781,0.0606 -8.09098,24.73598 -11.13968,45.37723 -11.03906,68.59961 l 0.1211,27.86133 c 0.0146,3.37354 0.23058,6.63309 0.60937,9.77343 -18.14899,17.64876 -41.44476,26.87032 -61.44141,31.74414 l -0.0391,1.80469 c 31.11862,3.35981 51.74015,-4.70682 65.40625,-17.02734 5.82881,15.66026 16.54926,25.50869 27.83789,25.59179 16.73753,0.12276 23.03601,-14.28714 27.72071,-54.58593 4.68468,-40.29884 23.49669,-43.6943 24.98242,-43.66407 1.48528,0.0342 1.83008,1.32032 1.83008,1.32032 0.36839,1.37484 1.65466,0.49983 1.64843,-1.78516 l -0.0488,-17.89258 c -0.23876,-0.89095 -1.57489,-2.59179 -3.90625,-2.59179 -10.14588,0 -27.58985,23.90369 -27.58985,56.75976 0,11.75475 -5.48578,41.32617 -26.27344,41.32617 -8.86051,0 -14.9705,-4.78319 -19.10937,-11.94531 19.337,-23.75987 19.72303,-56.23523 19.63086,-59.93945 l -0.40625,-16.35352 c -0.3721,-14.97577 -5.42967,-32.45592 -13.79883,-53.57422 z m 472.04883,4.56055 c -0.55893,0.018 -0.91797,1.57031 -0.91797,1.57031 l 0.31836,20.30664 17.11523,55.07813 c 2.38708,8.90887 3.948,39.52843 -20.33789,39.64258 -11.825,0.0644 -15.32883,-26.48015 -20.13476,-26.92969 -9.38109,0 -17.72872,25.63019 -20.70899,44.23242 -0.99942,6.23815 -1.52166,21.97656 -11.94726,21.97656 -8.64232,0 -15.3242,-16.16667 -16.17578,-53.25195 1.01493,-6.211 1.53921,-13.36822 1.41406,-21.62305 l -0.0898,-5.89453 c -0.36756,-24.25651 -11.79856,-31.69411 -17.33008,-32.01953 -4.26667,-0.25104 -6.51797,12.72108 -6.25,21.51563 0.26804,8.79454 1.26777,23.99125 8.64258,23.73046 7.6329,-0.26989 9.55078,-13.43359 9.55078,-13.43359 h 0.002 c 0,0 1.83103,1.69154 2.32422,9.08789 0.49315,7.39623 -10.6654,34.52945 -30.60547,34.14844 -7.96561,-0.15202 -13.90418,-3.08755 -18.33203,-7.59375 5.60786,-15.26061 4.69922,-32.61841 4.69922,-47.5332 0,-12.23721 -4.25923,-28.26278 -9.73633,-43.90821 -0.22251,0.72406 -0.23661,0.76728 -0.44336,1.43946 l -2.25391,-8.88672 -0.77343,0.10156 c 0,0 -6.68833,35.55282 -6.74805,51.25195 -0.0542,13.5921 0.17705,31.39989 4.02148,46.37891 -13.40845,17.88436 -35.92389,32.81749 -61.5664,38.08203 l 0.5332,2.02539 c 36.57505,-2.03419 55.82368,-12.64735 65.93555,-26.83594 5.13483,9.82809 13.19168,16.48242 25.82422,16.48242 10.18155,0 22.53176,-6.26805 28.70312,-25.89257 -0.28454,22.70328 1.71038,63.68554 19.97852,63.68554 9.68141,0 9.84454,-13.06253 13.43554,-30.97265 4.58994,-22.89173 13.95995,-34.72071 17.14258,-34.72071 4.13805,0 7.42245,26.025 20.51367,26.2461 19.56167,0.33043 27.61272,-25.89698 25.04102,-48.41992 3.30523,9.35956 12.83711,32.94614 25.29687,32.94726 21.48764,0.002 26.93044,-41.70854 18.07618,-62.56836 l -23.65235,-55.72265 -2.24414,5.15429 0.94336,43.37891 2.0625,4.51367 1.41602,-23.49414 c -0.27289,1.0501 20.43567,43.2044 21.8457,53.78711 -2.41062,7.89604 -9.27877,14.0463 -19.14844,13.65039 -20.13921,-0.80772 -36.13895,-77.47146 -44.56836,-99.49609 -0.32214,-0.9163 -0.61703,-1.22498 -0.87109,-1.2168 z m -473.13086,19.0957 c 5.01965,11.82667 11.31267,32.24418 11.43359,44.42188 0.16119,16.23393 -8.49429,32.82615 -21.23047,46.96875 -1.81521,-8.05114 -2.46484,-16.83986 -2.46484,-24.74024 0,-20.86812 9.65471,-57.21412 12.26172,-66.65039 z m 283.47461,2.03711 c -0.1468,0.004 -0.24612,0.0259 -0.29102,0.0645 l 0.14258,21.55078 14.7832,2.85547 1.18946,-1.15821 0.0391,-19.09179 -0.7832,-0.75391 c 0,0 -12.87817,-3.53354 -15.08008,-3.4668 z m 296.56445,0.11524 c -0.14679,0.004 -0.24612,0.0259 -0.29101,0.0645 l 0.14453,21.55273 14.7832,2.85352 1.18945,-1.15625 0.0391,-19.09375 -0.78321,-0.75195 c 0,0 -12.88011,-3.53549 -15.08203,-3.46875 z m -237.75195,14.88476 c 5.09142,13.88589 9.1582,28.20346 9.1582,38.61914 0,8.94312 -2.8548,18.13875 -7.90039,26.89258 -5.97786,-12.28102 -6.61346,-28.48161 -6.375,-37.89453 0.23548,-9.28655 2.85807,-19.96175 5.11719,-27.61719 z m -559.03125,51.31641 c -1.07642,0.0896 -6.83984,19.46094 -6.83984,19.46094 7.87272,2.68354 12.95037,4.5768 19.56432,10.6081 l 1.69799,0.0191 7.22656,-19.49805 c 1.00629,-2.71507 -21.64903,-6.63543 -21.64903,-10.59007 z m 346.0039,62.91016 c -5.67888,-0.005 -11.53274,0.4002 -17.7207,1.58593 l -6.56054,18.9961 c -0.1886,1.05437 0.37608,1.22896 0.98632,1.34961 10.34952,-2.74802 21.93321,-1.50531 32.54688,-1.02149 l 7.41797,-20.03906 c -5.48733,-0.45296 -10.99104,-0.86626 -16.66993,-0.87109 z m 70.88086,4.19726 c -3.97081,0.0593 -9.25781,9.19365 -9.25781,14.17969 0,3.91975 11.99913,0.75597 13.74414,2.70508 0.2411,3.74638 -13.49219,7.70703 -13.49219,7.70703 l 0.35547,1.02929 c 0,0 7.67804,0.16157 10.76172,-2.26171 3.30093,-2.59401 5.39063,-8.47186 5.39063,-11.0879 0,-2.21162 0.0246,-2.88705 -5.91992,-2.67578 -3.81165,0.06 -5.89066,-0.43534 -7.03125,-1.00195 1.63549,-1.61162 3.60351,-1.20508 3.60351,-1.20508 l 2.6211,-7.27539 c -0.25108,-0.0806 -0.51067,-0.11723 -0.7754,-0.11328 z m 118.98243,0 c -3.97081,0.0593 -9.25782,9.19365 -9.25782,14.17969 0,3.91975 11.99914,0.75597 13.74414,2.70508 0.2411,3.74638 -13.49218,7.70703 -13.49218,7.70703 l 0.35547,1.02929 c 0,0 7.67811,0.16157 10.76171,-2.26171 3.30101,-2.59401 5.38868,-8.47186 5.38868,-11.0879 0,-2.21162 0.0266,-2.88705 -5.91797,-2.67578 -3.809,0.06 -5.89014,-0.43389 -7.03125,-1 1.6356,-1.61221 3.60156,-1.20703 3.60156,-1.20703 l 2.62109,-7.27539 c -0.25107,-0.0806 -0.50871,-0.11723 -0.77343,-0.11328 z m 301.15429,0 c -3.97081,0.0593 -9.25781,9.19365 -9.25781,14.17969 0,3.91975 11.99913,0.75597 13.74414,2.70508 0.24114,3.74638 -13.49219,7.70703 -13.49219,7.70703 l 0.35547,1.02929 c 0,0 7.67804,0.16157 10.76172,-2.26171 3.30097,-2.59401 5.38867,-8.47186 5.38867,-11.0879 0,-2.21162 0.0266,-2.88705 -5.91797,-2.67578 -3.81183,0.06 -5.89265,-0.43531 -7.0332,-1.00195 1.6355,-1.61162 3.60352,-1.20508 3.60352,-1.20508 l 2.62109,-7.27539 c -0.25107,-0.0806 -0.50872,-0.11723 -0.77344,-0.11328 z"
       transform="matrix(0.26458333,0,0,0.26458333,0,11.249989)"
       sodipodi:nodetypes="cccccssscccscccccsccscccccccccccccccscccscsssssscssscsscsssscccsccsssscccssccssscccccscsssscsssscsssscccccccsscccscccsccccscscsccscccccsccccccccccsssccscsccccssscccsssccsscscccccccccscsssscssccccccscscscscsccccccssccccccccscccccccccscccccssccccssccccssscccssccccssscccssccccscsscccccc" />
  </g>
</svg>
