<?xml version="1.0" encoding="UTF-8" standalone="no"?>
<svg
   xmlns:dc="http://purl.org/dc/elements/1.1/"
   xmlns:cc="http://creativecommons.org/ns#"
   xmlns:rdf="http://www.w3.org/1999/02/22-rdf-syntax-ns#"
   xmlns:svg="http://www.w3.org/2000/svg"
   xmlns="http://www.w3.org/2000/svg"
   xmlns:sodipodi="http://sodipodi.sourceforge.net/DTD/sodipodi-0.dtd"
   xmlns:inkscape="http://www.inkscape.org/namespaces/inkscape"
   width="1080"
   height="300"
   viewBox="0 0 285.75001 79.374997"
   version="1.1"
   id="svg8"
   inkscape:version="1.0.1 (unknown)"
   sodipodi:docname="Innaa-Lillah_CC-BY-4.svg">
  <defs
     id="defs2" />
  <sodipodi:namedview
     id="base"
     pagecolor="#ffffff"
     bordercolor="#666666"
     borderopacity="1.0"
     inkscape:pageopacity="0.0"
     inkscape:pageshadow="2"
     inkscape:zoom="0.3934174"
     inkscape:cx="388.40155"
     inkscape:cy="622.46054"
     inkscape:document-units="px"
     inkscape:current-layer="layer1"
     showgrid="false"
     units="px"
     inkscape:document-rotation="0"
     inkscape:snap-global="false" />
  <metadata
     id="metadata5">
    <rdf:RDF>
      <cc:Work
         rdf:about="">
        <dc:format>image/svg+xml</dc:format>
        <dc:type
           rdf:resource="http://purl.org/dc/dcmitype/StillImage" />
        <dc:title></dc:title>
      </cc:Work>
    </rdf:RDF>
  </metadata>
  <g
     inkscape:label="Layer 1"
     inkscape:groupmode="layer"
     id="layer1"
     transform="translate(0,-11.249989)">
    <path
       id="path110"
       style="fill:#000000;stroke:none;stroke-width:0.0264583"
       d="m 87.839599,21.351873 c -0.211796,0.2756 -0.618582,0.723005 -1.095542,1.241784 l 0.168466,-0.261482 c 0,0 -0.111474,0.170233 -0.293005,0.397391 -0.168558,0.182959 -0.316688,0.345855 -0.507463,0.552939 -0.455877,0.427967 -1.07288,0.839224 -1.768885,0.839224 -2.218383,0 -2.73586,-2.735233 -5.88646,-2.735233 -2.72755,0 -3.920175,4.625864 -3.920175,11.230321 0,2.192462 0.198085,4.527093 0.506428,6.834209 -1.355244,1.64969 -2.74411,2.675829 -3.847309,2.816365 l 0.0083,-0.05684 c 0,0 0.179149,-4.986777 -1.604555,-4.986777 -2.623267,0 -5.27477,3.708247 -5.715413,5.352646 l -0.03049,4.967139 c -0.0048,0.78074 0.418971,0.579287 0.784448,0.367935 1.126347,-0.651098 2.094701,-0.924007 2.97036,-0.537951 -1.354002,1.596652 -3.622754,3.798559 -5.252907,4.500501 -0.400185,-1.41284 -2.232594,-4.476728 -4.925283,-4.476728 -1.696249,0 -2.045353,2.281092 -2.045353,3.176032 l 0.04237,4.856551 c 0.0053,0.712581 0.862944,3.512447 3.063897,3.512447 0.701992,0 1.929728,-0.304448 2.935737,-0.873332 0.171725,0.348523 0.31696,0.802511 0.335896,1.365293 0.109742,3.265159 -3.453913,11.546027 -18.66656,13.821378 l -0.0155,0.645438 c 3.038182,-0.0131 11.646493,0.103923 15.792318,-2.247408 2.925974,-1.659559 4.858419,-6.455209 4.03076,-14.424443 4.286787,-2.500731 6.561511,-6.435923 7.577318,-9.236128 2.175682,-0.09375 3.855913,-1.641647 5.344374,-3.784266 0.843465,4.383637 1.854962,8.063528 2.390037,9.901721 -0.296008,1.009938 -1.753383,4.917014 -1.753383,4.917014 2.082995,0.710028 3.469438,1.146127 5.365615,2.415355 l 0.318277,-0.02635 1.912028,-5.158856 c -1.757313,-0.96628 -3.50887,-1.83301 -5.228622,-2.14974 -0.299633,-1.580493 -1.178369,-6.270722 -2.043803,-11.38742 1.047792,-1.746319 2.027457,-3.714459 3.060279,-5.562449 2.177979,-3.89699 8.458584,-10.127216 8.479584,-10.219015 0.02204,-0.09202 -0.04547,-5.492689 -0.04547,-5.492689 z M 51.68625,20.736407 c 0,0.205547 -0.446508,0.297156 -0.530717,1.12758 -0.841719,8.302418 -11.270443,13.772837 -18.57561,23.116418 -2.160836,2.763779 -3.540778,6.592636 -4.952153,10.027295 -1.444634,3.515598 -2.601336,6.677345 -2.444811,9.630937 0.288213,5.438529 3.028966,9.815938 7.776787,9.815938 10.233186,0 13.830162,-13.56024 13.830162,-18.422649 0,-2.738908 -1.690687,-8.219609 -7.231083,-8.18348 -4.555697,0.0297 -6.000814,7.080572 -6.078181,7.317383 -0.331459,1.014325 0.689362,1.520383 0.689362,0.220141 v -5.29e-4 c 0,-0.250299 0.768186,-2.148189 3.759462,-2.148189 2.992421,0 7.618481,2.790113 6.401675,10.120312 -1.984332,3.333289 -5.674381,5.974313 -9.11779,5.974313 -3.44338,0 -7.764899,-1.693355 -7.764899,-10.626225 0,-2.68473 3.313081,-8.60616 5.737632,-11.040671 6.257857,-6.283499 17.052629,-12.652338 18.771981,-25.797906 0.08834,-0.67532 -0.271817,-1.336228 -0.271817,-1.130681 z m 92.67806,2.455148 c -0.18587,0.02799 -0.48576,0.385506 -0.48576,0.385506 -0.0835,10.024898 0.90578,19.49805 1.35858,29.247308 0.37475,-0.05225 0.72915,-0.430501 0.72915,-1.408181 0,0 -1.03251,-20.462314 -1.06091,-20.707262 -0.0284,-0.244941 7.78453,14.787956 7.78453,22.234818 0,8.100039 -8.79308,16.993296 -19.73213,19.239134 l 0.14056,0.535885 c 21.65318,-1.204291 20.36465,-13.768644 20.36465,-22.882323 0,-9.11367 -8.88076,-26.180705 -8.96586,-26.537917 -0.0213,-0.0893 -0.0709,-0.1163 -0.13281,-0.106968 z m 110.80822,0.338997 c -0.18586,0.028 -0.48575,0.385506 -0.48575,0.385506 -0.0835,10.02489 0.90577,19.498577 1.35857,29.247827 0.37475,-0.05224 0.72864,-0.431009 0.72864,-1.4087 0,0 -1.03252,-20.462313 -1.06092,-20.707262 -0.0284,-0.244941 7.78454,14.787956 7.78454,22.234818 0,8.10005 -8.79257,16.993296 -19.73161,19.239135 l 0.14056,0.535884 c 21.65319,-1.20428 20.36464,-13.768128 20.36464,-22.881806 0,-9.113682 -8.88127,-26.180706 -8.96637,-26.537915 -0.0213,-0.0893 -0.0703,-0.116819 -0.1323,-0.107487 z m -121.24065,1.025777 c -0.0953,0.02103 -0.52659,0.05943 -0.52659,0.05943 0,0 0.23473,7.660251 1.16737,21.825539 0.0832,1.263111 0.24388,2.279918 0.72606,2.648419 L 134.6016,33.02403 c 0,0 4.28553,10.778524 4.28553,14.139703 0,1.926434 -1.78503,6.056604 -4.45451,8.896615 0.1575,-1.28601 0.18383,-2.383195 0.10387,-3.035472 -0.054,-0.441042 -0.54622,-0.375341 -0.54622,0.266649 0,0.495951 -1.76916,7.824846 -7.23832,7.824846 -1.20434,0 -2.24044,-0.731242 -2.66392,-1.807641 -0.59152,-1.503521 -1.29907,-2.121154 -2.36626,-2.131653 -2.25984,0 -4.8998,4.559263 -5.73557,9.388573 -0.72399,4.183451 -0.0632,7.659997 -2.4691,7.659997 -2.44553,0 -5.93969,-4.391332 -5.93969,-9.292971 0,-2.73435 0.65957,-5.657506 1.62316,-8.570537 0.25211,-0.76209 -0.19863,-0.787863 -0.50643,0.110588 -0.6701,1.956189 -2.09445,5.70947 -2.09445,10.72751 0,4.748379 2.65177,12.562023 6.66006,12.562023 2.78515,0 2.21007,-3.61446 3.26699,-8.341609 1.02337,-4.57721 3.51551,-8.700243 5.25187,-8.700243 1.88704,0 1.64067,3.954115 5.24826,3.964614 2.30418,0.0069 3.96741,-1.423778 5.13871,-3.380155 1.20821,-0.587616 7.5722,-4.908643 7.51892,-13.969172 l -0.0238,-4.019394 c -0.038,-6.82431 -4.68319,-18.015571 -5.72885,-20.759972 z m 21.51961,1.254704 0.12816,5.651333 c 1.62549,0.685181 3.56732,6.912115 5.25239,14.066327 2.2264,9.452409 3.66289,20.335192 9.48108,20.335192 5.54858,0 4.55321,-13.732497 4.55321,-13.732497 h -5.3e-4 c 0,-0.849979 -0.61547,-0.624599 -0.61547,-0.278018 0,0 -0.26627,8.418091 -3.807,8.418091 -8.75641,0 -8.52766,-32.169798 -14.99185,-34.460428 z m 78.46653,0.03049 0.12816,5.651336 c 1.6255,0.685178 3.56732,6.912115 5.25239,14.066324 2.22639,9.452409 3.66288,20.335192 9.48107,20.335192 5.54859,0 4.55322,-13.732494 4.55322,-13.732494 h -5.3e-4 c 0,-0.84999 -0.61547,-0.624599 -0.61547,-0.278019 0,0 -0.26627,8.418089 -3.807,8.418089 -8.75642,0 -8.52767,-32.169798 -14.99185,-34.460428 z M 78.403481,27.054368 c 1.25984,0 2.516955,0.781876 3.306775,1.390095 -1.398169,1.837195 -2.727668,3.862072 -3.616833,5.908167 -0.610396,1.404601 -1.315256,2.668738 -2.055172,3.761012 -0.376692,-2.484178 -0.636653,-4.539409 -0.636653,-5.496306 0,-3.215812 1.373052,-5.562968 3.001883,-5.562968 z m 13.61209,5.243089 -0.457854,0.276471 -1.185973,3.564639 c 0.0064,0.0037 0.01407,0.01167 0.02066,0.01603 -2.140739,6.544728 -2.947374,12.006058 -2.920752,18.150313 l 0.03204,7.371644 c 0.0039,0.892582 0.06101,1.755005 0.16123,2.585886 -4.801921,4.669568 -10.965593,7.109439 -16.256373,8.39897 l -0.01035,0.477491 c 8.233469,0.88895 13.689582,-1.245346 17.305404,-4.50515 1.542206,4.143444 4.378658,6.749174 7.365442,6.771161 4.428465,0.03248 6.094945,-3.780139 7.334435,-14.442527 1.23949,-10.662401 6.21683,-11.560783 6.60993,-11.552785 0.39298,0.009 0.48421,0.349335 0.48421,0.349335 0.0975,0.363759 0.4378,0.132246 0.43615,-0.472324 l -0.0129,-4.734078 c -0.0632,-0.235731 -0.41669,-0.685745 -1.03353,-0.685745 -2.68443,0 -7.29982,6.324518 -7.29982,15.017686 0,3.110111 -1.45144,10.934216 -6.951509,10.934216 -2.344343,0 -3.960945,-1.265552 -5.056021,-3.16053 5.116248,-6.286465 5.218385,-14.878904 5.193999,-15.858979 L 95.666501,46.472316 C 95.568049,42.509977 94.2299,37.885021 92.01556,32.297471 Z m 124.896249,1.206646 c -0.14788,0.0048 -0.24288,0.415478 -0.24288,0.415478 l 0.0842,5.372798 4.5284,14.572755 c 0.63158,2.357139 1.04457,10.458564 -5.38107,10.488766 -3.12869,0.01704 -4.05575,-7.006206 -5.32732,-7.125147 -2.48208,0 -4.69072,6.781321 -5.47925,11.703161 -0.26443,1.65051 -0.40261,5.814631 -3.16105,5.814631 -2.28661,0 -4.05453,-4.277431 -4.27984,-14.089578 0.26853,-1.643327 0.40725,-3.537008 0.37414,-5.721098 l -0.0238,-1.559595 c -0.0973,-6.417868 -3.1217,-8.385733 -4.58525,-8.471834 -1.12889,-0.06642 -1.72455,3.365786 -1.65365,5.692677 0.0709,2.326889 0.33543,6.347685 2.28668,6.278684 2.01954,-0.07141 2.52698,-3.554304 2.52698,-3.554304 h 5.3e-4 c 0,0 0.48446,0.447554 0.61495,2.404505 0.13048,1.956919 -2.82189,9.135917 -8.0977,9.035108 -2.10756,-0.04022 -3.67881,-0.816915 -4.85035,-2.00918 1.48375,-4.037703 1.24334,-8.630288 1.24334,-12.576492 0,-3.237762 -1.12692,-7.477861 -2.57607,-11.617381 -0.0589,0.191574 -0.0626,0.20301 -0.11731,0.380857 l -0.59634,-2.351278 -0.20464,0.02687 c 0,0 -1.76962,9.406684 -1.78542,13.560412 -0.0143,3.596243 0.0468,8.307888 1.06401,12.271087 -3.54765,4.731903 -9.50486,8.68296 -16.28944,10.07587 l 0.14108,0.535884 c 9.67714,-0.538212 14.77001,-3.346278 17.44544,-7.100342 1.35859,2.600349 3.4903,4.360973 6.83266,4.360973 2.69387,0 5.96153,-1.658421 7.59437,-6.850742 -0.0753,6.00691 0.45254,16.850132 5.28598,16.850132 2.56154,0 2.6047,-3.456127 3.55482,-8.194847 1.21442,-6.05677 3.69357,-9.186521 4.53564,-9.186521 1.09486,0 1.96386,6.885782 5.42758,6.944281 5.17569,0.08743 7.30586,-6.851909 6.62543,-12.811104 0.87451,2.476384 3.39649,8.717 6.69313,8.717296 5.68528,5.29e-4 7.12535,-11.035384 4.78266,-16.554545 l -6.25802,-14.743284 -0.59376,1.363739 0.2496,11.477336 0.5457,1.194242 0.37466,-6.216158 c -0.0722,0.277839 5.40693,11.431164 5.78,14.231173 -0.6378,2.089161 -2.455,3.716417 -5.06635,3.611666 -5.3285,-0.21371 -9.56177,-20.497657 -11.79205,-26.325007 -0.0852,-0.242438 -0.16325,-0.324109 -0.23047,-0.321945 z M 91.729284,38.556507 c 1.328115,3.12914 2.993144,8.531272 3.025137,11.753289 0.04265,4.295227 -2.247448,8.685252 -5.617228,12.427148 -0.480275,-2.130197 -0.652156,-4.455546 -0.652156,-6.545855 0,-5.521357 2.554475,-15.137902 3.244247,-17.634582 z m 75.002656,0.538985 c -0.0388,0.0011 -0.0651,0.0069 -0.077,0.01707 l 0.0377,5.701977 3.91138,0.75551 0.31471,-0.306443 0.0104,-5.05137 -0.20722,-0.199472 c 0,0 -3.40735,-0.934916 -3.98994,-0.917257 z m 78.46601,0.03049 c -0.0388,0.0011 -0.0651,0.0069 -0.077,0.01707 l 0.0382,5.702493 3.91139,0.754994 0.31471,-0.305924 0.0103,-5.051888 -0.20723,-0.198954 c 0,0 -3.40786,-0.935431 -3.99045,-0.917773 z m -62.9052,3.938259 c 1.3471,3.673975 2.4231,7.462165 2.4231,10.217981 0,2.3662 -0.75533,4.799211 -2.09031,7.115328 -1.58164,-3.249353 -1.74981,-7.535759 -1.68672,-10.026261 0.0623,-2.457066 0.7562,-5.281546 1.35393,-7.307048 z M 34.382397,56.641709 c -0.284802,0.02371 -1.809707,5.14904 -1.809707,5.14904 2.08299,0.71002 3.426452,1.210945 5.176393,2.806726 l 0.449259,0.0051 1.912028,-5.158859 c 0.266247,-0.718362 -5.727973,-1.755624 -5.727973,-2.801956 z m 91.546863,16.644979 c -1.50254,-0.0013 -3.05137,0.105887 -4.6886,0.419611 l -1.73581,5.026051 c -0.0499,0.278969 0.0995,0.325163 0.26096,0.357085 2.73831,-0.727081 5.80317,-0.39828 8.61137,-0.27027 l 1.96267,-5.302001 c -1.45186,-0.119845 -2.90805,-0.229198 -4.41059,-0.230476 z m 18.7539,1.110525 c -1.05061,0.01569 -2.44947,2.432487 -2.44947,3.75171 0,1.0371 3.17477,0.200017 3.63647,0.715719 0.0638,0.99123 -3.56981,2.039152 -3.56981,2.039152 l 0.0941,0.272333 c 0,0 2.03148,0.04275 2.84737,-0.598411 0.87337,-0.686332 1.42627,-2.241513 1.42627,-2.933674 0,-0.585157 0.007,-0.763865 -1.56631,-0.707966 -1.0085,0.01587 -1.55857,-0.115184 -1.86035,-0.2651 0.43272,-0.426407 0.95342,-0.318844 0.95342,-0.318844 l 0.6935,-1.924947 c -0.0664,-0.02132 -0.13511,-0.03102 -0.20515,-0.02997 z m 31.48076,0 c -1.05061,0.01569 -2.44946,2.432487 -2.44946,3.75171 0,1.0371 3.17477,0.200017 3.63647,0.715719 0.0638,0.99123 -3.56981,2.039152 -3.56981,2.039152 l 0.0941,0.272333 c 0,0 2.0315,0.04275 2.84737,-0.598411 0.8734,-0.686332 1.42576,-2.241513 1.42576,-2.933674 0,-0.585157 0.007,-0.763865 -1.5658,-0.707966 -1.0078,0.01587 -1.55843,-0.1148 -1.86035,-0.264584 0.43275,-0.426564 0.95291,-0.31936 0.95291,-0.31936 l 0.6935,-1.924947 c -0.0664,-0.02132 -0.1346,-0.03102 -0.20464,-0.02997 z m 79.68041,0 c -1.05061,0.01569 -2.44946,2.432487 -2.44946,3.75171 0,1.0371 3.17477,0.200017 3.63647,0.715719 0.0638,0.99123 -3.56981,2.039152 -3.56981,2.039152 l 0.094,0.272333 c 0,0 2.03148,0.04275 2.84737,-0.598411 0.87338,-0.686332 1.42575,-2.241513 1.42575,-2.933674 0,-0.585157 0.007,-0.763865 -1.56579,-0.707966 -1.00855,0.01587 -1.5591,-0.115176 -1.86087,-0.2651 0.43273,-0.426407 0.95343,-0.318844 0.95343,-0.318844 l 0.6935,-1.924947 c -0.0664,-0.02132 -0.1346,-0.03102 -0.20464,-0.02997 z"
       sodipodi:nodetypes="cccccssscccscccccsccscccccccccccccccscccscsssssscssscsscsssscccsccsssscccssccssscccccscsssscsssscsssscccccccsscccscccsccccscscsccscccccsccccccccccsssccscsccccssscccsssccsscscccccccccscsssscssccccccscscscscsccccccssccccccccscccccccccscccccssccccssccccssscccssccccssscccssccccscsscccccc" />
  </g>
</svg>
