<?xml version="1.0" encoding="UTF-8" standalone="no"?>
<svg
   xmlns:dc="http://purl.org/dc/elements/1.1/"
   xmlns:cc="http://creativecommons.org/ns#"
   xmlns:rdf="http://www.w3.org/1999/02/22-rdf-syntax-ns#"
   xmlns:svg="http://www.w3.org/2000/svg"
   xmlns="http://www.w3.org/2000/svg"
   xmlns:sodipodi="http://sodipodi.sourceforge.net/DTD/sodipodi-0.dtd"
   xmlns:inkscape="http://www.inkscape.org/namespaces/inkscape"
   width="1080"
   height="350"
   viewBox="0 0 285.75001 92.604163"
   version="1.1"
   id="svg8"
   inkscape:version="1.0.1 (unknown)"
   sodipodi:docname="Kitabut-Tauhid_CC-BY-4.svg">
  <defs
     id="defs2" />
  <sodipodi:namedview
     id="base"
     pagecolor="#ffffff"
     bordercolor="#666666"
     borderopacity="1.0"
     inkscape:pageopacity="0.0"
     inkscape:pageshadow="2"
     inkscape:zoom="0.39195359"
     inkscape:cx="573.51711"
     inkscape:cy="487.14183"
     inkscape:document-units="px"
     inkscape:current-layer="layer1"
     showgrid="false"
     units="mm"
     inkscape:document-rotation="0" />
  <metadata
     id="metadata5">
    <rdf:RDF>
      <cc:Work
         rdf:about="">
        <dc:format>image/svg+xml</dc:format>
        <dc:type
           rdf:resource="http://purl.org/dc/dcmitype/StillImage" />
        <dc:title></dc:title>
      </cc:Work>
    </rdf:RDF>
  </metadata>
  <g
     inkscape:label="Layer 1"
     inkscape:groupmode="layer"
     id="layer1"
     transform="translate(0,-11.249989)">
    <path
       id="path102"
       style="fill:#000000;stroke:none;stroke-width:0.0264583"
       d="m 221.0701,15.576857 c -1.79541,0 -3.13959,7.02794 -5.32423,17.52761 -4.74332,22.79706 -15.27917,26.32552 -15.27917,26.32552 l 0.12506,0.72089 c 12.9483,-4.92515 13.61231,-13.90569 16.30908,-28.17141 2.06989,-10.94957 3.67836,-13.1687 3.99562,-13.1687 0.0902,0 0.14318,0.14211 0.26665,0.14211 0.19288,0 0.15703,-0.17708 0.15503,-0.32866 l -0.0264,-2.6479 c 0,0 -0.0238,-0.39946 -0.22169,-0.39946 z m -96.21945,22.41207 -0.68265,0.10593 c 0,0 0.0808,4.55726 0.2372,7.03058 0.27682,4.37696 1.39328,12.85233 1.44073,13.10153 0.33254,1.74611 0.79232,0.5873 0.75241,-0.11524 l -0.51418,-9.05113 c 0.42551,-0.27612 4.78017,9.91146 6.25027,16.50029 -0.90089,4.04407 -3.3886,5.53257 -5.38262,6.45128 0.0321,-1.41635 0.001,-2.96083 -0.0568,-4.64312 -0.0256,-0.73964 -0.75159,-0.70181 -0.7612,0.14366 -0.0338,2.97333 -1.04707,6.83037 -5.12216,8.66458 -0.008,-0.0327 -0.89692,-3.72587 -4.02767,-3.72587 -3.04796,0 -3.22151,4.22159 -3.22151,8.16798 0,3.46386 2.72541,3.6034 3.53209,3.6034 1.00566,0 2.0665,-0.28487 2.86339,-0.56121 0.64244,4.27981 -5.80724,10.70944 -14.71021,13.26327 l 0.0868,0.71366 c 5.76693,-0.55797 15.91721,0.63112 15.91273,-9.21236 l -0.003,-5.46582 c 1.74921,-0.76653 2.96427,-1.81246 3.80184,-3.15536 1.79149,-0.66388 3.18583,-1.43077 4.27312,-2.25258 l 0.0796,7.1236 c 0.0742,6.66496 3.18029,12.67674 9.5157,12.67674 6.03176,0 9.25603,-7.85125 9.25784,-15.37994 l 0.002,-7.2316 c 0.002,-8.54647 -4.90941,-16.91247 -8.22068,-22.58053 l -0.55294,0.11679 c -0.16381,9.42875 0.45664,18.56048 0.90175,27.82001 0.0678,1.41071 0.84094,0.98268 0.79944,-0.0687 l -0.7736,-19.58382 c 1.42678,1.44934 6.92826,12.64476 6.92826,18.01079 0,6.203 -3.42337,11.83958 -9.21856,11.83958 -6.03696,0 -7.95219,-7.75837 -8.06927,-13.27205 2.99403,-2.62745 3.17277,-5.68973 3.16518,-7.73338 l -0.0284,-7.67395 c -0.0238,-6.41393 -5.8984,-17.22252 -8.45529,-23.62698 z m -19.52956,8.10958 c -4.72113,0 -3.60091,7.96656 -3.56671,11.68352 0.025,2.71552 0.2881,5.10518 0.67335,7.36286 -1.41238,2.52582 -2.877963,4.26813 -4.104664,5.14749 0.05431,-1.22465 0.02069,-2.16635 0.02067,-2.46031 v -5.2e-4 c -2.14e-4,-1.00596 -0.581795,-0.7388 -0.695566,-0.0672 -0.828058,4.88899 -2.85728,4.93923 -4.87567,4.93923 -4.708469,0 -5.006126,-7.5076 -7.275526,-7.49153 l -0.904854,0.006 c -3.719351,0.0263 -2.673969,13.62861 -5.866307,19.88561 -2.54853,4.99512 -8.261966,8.40562 -14.297837,11.75742 l 0.343133,0.49661 c 5.66325,-0.2262 11.451053,-1.64336 13.320633,-3.94859 4.783619,-5.89831 3.342296,-21.00166 6.307624,-21.09381 l 0.857314,-0.0269 c 1.844889,-0.0573 2.249328,7.3427 7.468277,7.3427 0.979432,0 1.788581,-0.27146 2.458249,-0.7307 3.06605,-1.11396 5.603134,-3.45913 8.377264,-8.41137 0.90676,3.74333 1.93579,7.51964 2.53473,12.29124 0.0951,0.75791 0.81111,0.69099 0.74931,-0.12558 l -0.46147,-6.10298 c -0.0937,-1.23862 -0.80405,-4.66557 -1.5844,-8.41293 0.42877,-0.86184 0.86384,-1.77378 1.31103,-2.76727 3.40431,-7.56306 5.54389,-8.78323 8.73487,-11.97756 l 0.0455,-6.74688 c -0.11162,-0.1355 -0.20146,-0.1788 -0.30644,-0.1788 -0.33201,0 -1.15534,0.63477 -2.23139,1.77561 -0.30012,0.12598 -0.64735,0.21497 -1.03869,0.21497 -2.18533,0 -3.73725,-2.36058 -5.9924,-2.36058 z m -0.0346,7.07295 c 0.99022,0 1.80862,0.47758 2.66702,0.90434 -1.29872,2.07504 -2.58773,4.49306 -3.6649,7.16029 -0.20031,0.49602 -0.40631,0.96729 -0.61443,1.4273 -0.64478,-3.24107 -1.14104,-6.04526 -1.10846,-7.12153 0.0395,-1.30453 1.51798,-2.3704 2.72077,-2.3704 z m 90.52367,3.22875 c -2.99518,0 -5.10101,9.17223 -8.9824,20.78942 -2.82818,8.46487 -7.90172,15.20786 -18.21491,15.20786 -11.31761,0 -13.56919,-7.34106 -13.56919,-10.35544 0,-7.46308 5.86224,-10.70994 8.77362,-10.70994 3.64955,0 5.85556,0.69258 8.76019,3.7145 0.51936,0.54032 1.23147,0.42512 0.50746,-0.3855 -2.54604,-2.85065 -4.19724,-4.3217 -8.98136,-4.3217 -4.53423,0 -11.00187,4.43102 -11.02207,11.80548 -0.0216,7.90295 2.76218,17.3824 15.32258,17.3824 8.95182,0 16.81568,-8.60533 20.51348,-20.24683 2.6825,-8.44513 4.84108,-15.98507 7.11119,-15.98507 1.27315,0 1.7849,1.19735 1.7849,1.19735 l 0.56586,-0.0543 c 0.11635,-2.8667 -0.0284,-8.03827 -2.56935,-8.03827 z m 13.45809,0.41547 c -0.15788,7.74541 0.54811,14.52673 1.02681,20.05098 0.0865,0.99771 0.81519,0.94247 0.77928,-0.23668 l -0.30385,-9.97097 c 1.7598,3.42629 3.6874,7.28595 4.60436,12.27987 -1.18894,3.90526 -2.97987,5.55191 -4.80487,7.16649 -0.0308,-1.38797 -0.0918,-2.68677 -0.10387,-3.73724 -0.007,-0.63969 -0.65422,-0.5617 -0.65422,-0.0315 0,5.45733 -1.63559,8.61911 -4.61368,8.61911 -5.94348,0 -6.9453,-12.01448 -10.20196,-23.6983 -0.23828,-0.85486 -0.76502,-1.02743 -0.75499,0.0744 l 0.0548,6.02082 c 3.69718,13.45886 4.51444,24.56788 10.79314,24.5494 2.62613,-0.008 4.02249,-1.65366 4.75113,-3.94704 3.21249,-2.65301 6.60168,-5.68756 6.60683,-11.69231 l 0.006,-6.99544 c 0,-6.135 -4.27334,-12.48754 -6.59495,-18.36115 z m -85.5617,0.21085 c -0.15686,0.0131 -6.41067,3.3373 -7.64401,3.07726 l -2.23087,6.28386 c 0,0 -0.0872,0.4469 0.3514,0.41031 0.43863,-0.0366 7.80266,-3.18011 7.80266,-3.18011 l 2.21795,-6.22029 c 0,0 -0.34027,-0.38411 -0.49713,-0.37103 z m 80.84571,6.5877 c -0.203,0.003 -0.46643,0.25724 -0.66043,0.59325 -1.79517,3.73652 -4.81365,4.59145 -4.81365,4.59145 -1e-5,0 0.0264,5.41386 0.0264,6.2265 0,0.81286 0.009,0.95019 0.5023,0.81803 2.57123,-0.68897 5.26376,-5.45083 5.26376,-5.45083 l -0.0465,-6.47764 c -0.0501,-0.21459 -0.15002,-0.30281 -0.27182,-0.30076 z M 97.603214,88.495917 c -0.424108,-0.0653 -7.749913,1.49758 -7.749913,1.49758 -0.0145,0.13848 -2.114481,5.93666 -2.227773,6.25543 -0.113289,0.31877 -0.0585,0.67903 0.438216,0.49352 0.496732,-0.18552 5.106739,-1.48942 7.308599,-1.48157 0.595489,0 0.726569,-0.44131 0.726569,-0.44131 0,0 1.845125,-4.73808 2.010215,-5.3542 0.165089,-0.61613 -0.08177,-0.90413 -0.505913,-0.96945 z m 90.746916,3.01222 c -0.21133,-4.8e-4 -0.39643,0.052 -0.51625,0.32039 -0.15977,0.35798 -1.929,5.21779 -2.08876,5.68028 -0.15977,0.4625 -0.14483,0.76313 0.41289,0.77359 0.55773,0.0105 4.80428,0.85971 5.23999,1.01648 0.43573,0.15679 0.75273,0.27165 1.02578,-0.3607 0.27306,-0.63233 1.76906,-4.66661 1.94045,-5.15524 0.17138,-0.48861 0.17125,-0.73966 -0.29352,-1.00356 -0.46477,-0.26392 -5.50199,-1.25935 -5.50199,-1.25935 -0.0748,-0.006 -0.14815,-0.0117 -0.21859,-0.0119 z"
       sodipodi:nodetypes="csccsssccccccccsccccscsssccccccccsccccsccssccccccsccsscsccsccsccsccscccsccscsccscscsssssssssscsssccsscscccccsssscccscccsccsccssccscccssscssccsssssssssscss" />
  </g>
</svg>
