<?xml version="1.0" encoding="UTF-8" standalone="no"?>
<svg
   xmlns:dc="http://purl.org/dc/elements/1.1/"
   xmlns:cc="http://creativecommons.org/ns#"
   xmlns:rdf="http://www.w3.org/1999/02/22-rdf-syntax-ns#"
   xmlns:svg="http://www.w3.org/2000/svg"
   xmlns="http://www.w3.org/2000/svg"
   xmlns:xlink="http://www.w3.org/1999/xlink"
   xmlns:sodipodi="http://sodipodi.sourceforge.net/DTD/sodipodi-0.dtd"
   xmlns:inkscape="http://www.inkscape.org/namespaces/inkscape"
   width="207.39729mm"
   height="100.32813mm"
   viewBox="0 0 207.39729 100.32813"
   version="1.1"
   id="svg8"
   inkscape:version="1.0.2 (e86c870879, 2021-01-15)"
   sodipodi:docname="Ramadan-Mubarak_CC-BY-4.svg">
  <title
     id="title266">Ramadan Mubarak</title>
  <defs
     id="defs2">
    <color-profile
       name="Coated-FOGRA27--ISO-12647-2:2004-"
       xlink:href="file:///home/atmorojo/.color/icc/CoatedFOGRA27.icc"
       id="color-profile234" />
  </defs>
  <sodipodi:namedview
     id="base"
     pagecolor="#ffffff"
     bordercolor="#505767"
     borderopacity="1"
     inkscape:pageopacity="0"
     inkscape:pageshadow="2"
     inkscape:zoom="0.58403657"
     inkscape:cx="391.93189"
     inkscape:cy="189.59646"
     inkscape:document-units="px"
     inkscape:current-layer="layer1"
     showgrid="true"
     units="mm"
     inkscape:document-rotation="0"
     borderlayer="true"
     inkscape:pagecheckerboard="true"
     inkscape:showpageshadow="false"
     inkscape:snap-global="false"
     fit-margin-top="10"
     fit-margin-left="10"
     fit-margin-right="10"
     fit-margin-bottom="10">
    <inkscape:grid
       type="xygrid"
       id="grid7"
       color="#5d6477"
       opacity="0.09019608"
       originx="-44.801352"
       originy="-46.756061"
       empcolor="#5d6477"
       empopacity="0.19607843"
       units="px"
       spacingx="4.2333333"
       spacingy="4.2333333"
       empspacing="3" />
  </sodipodi:namedview>
  <metadata
     id="metadata5">
    <rdf:RDF>
      <cc:Work
         rdf:about="">
        <dc:format>image/svg+xml</dc:format>
        <dc:type
           rdf:resource="http://purl.org/dc/dcmitype/StillImage" />
        <dc:title>Ramadan Mubarak</dc:title>
        <cc:license
           rdf:resource="http://creativecommons.org/licenses/by/4.0/" />
        <dc:date>9 April 2021</dc:date>
        <dc:creator>
          <cc:Agent>
            <dc:title>Risyad Rais</dc:title>
          </cc:Agent>
        </dc:creator>
      </cc:Work>
      <cc:License
         rdf:about="http://creativecommons.org/licenses/by/4.0/">
        <cc:permits
           rdf:resource="http://creativecommons.org/ns#Reproduction" />
        <cc:permits
           rdf:resource="http://creativecommons.org/ns#Distribution" />
        <cc:requires
           rdf:resource="http://creativecommons.org/ns#Notice" />
        <cc:requires
           rdf:resource="http://creativecommons.org/ns#Attribution" />
        <cc:permits
           rdf:resource="http://creativecommons.org/ns#DerivativeWorks" />
      </cc:License>
    </rdf:RDF>
  </metadata>
  <g
     inkscape:label="Layer 1"
     inkscape:groupmode="layer"
     id="layer1"
     transform="translate(-44.801351,-58.006049)">
    <g
       id="g314"
       transform="matrix(1.230138,0,0,1.230138,-39.304672,24.84742)"
       style="stroke-width:0.812917">
      <path
         style="fill:#000000;stroke:none;stroke-width:0.0215084;stroke-linecap:round;stroke-linejoin:round;paint-order:fill markers stroke;stop-color:#000000"
         d="m 223.52851,71.024866 c 0.72802,0.40495 -0.84803,7.139006 -1.31605,7.275125 -5.03503,-0.37839 -6.47193,10.305446 -10.51146,16.409988 -3.57572,5.403661 -17.01747,4.345106 -17.01747,4.345106 -1.26775,-0.21348 -0.95085,-1.55093 0.0498,-1.55093 24.04721,-4.319805 18.08307,-28.654948 28.79504,-26.479289 z"
         id="path87"
         sodipodi:nodetypes="ccsccc" />
      <g
         id="g252"
         transform="translate(14.088683,1.3639636)"
         style="stroke-width:0.812917">
        <g
           id="g276"
           transform="translate(-4.4661741,7.9092505)"
           style="stroke-width:0.812917">
          <path
             style="fill:#000000;stroke:none;stroke-width:0.0215084;stroke-linecap:round;stroke-linejoin:round;paint-order:fill markers stroke;stop-color:#000000"
             d="m 81.268192,26.110913 c -0.803099,1.808 -1.764377,3.413417 -1.764377,7.036234 0,5.936098 5.448003,22.662404 5.692987,31.328927 0.03072,1.086392 0.815463,0.924084 0.8456,0.0065 0.274745,-8.360849 -5.126945,-24.302624 -5.228617,-31.427626 0,0 10.829283,14.92756 10.829283,21.527646 0,11.016137 -8.473679,15.440039 -11.721436,15.440039 -9.225695,0 -11.778673,-8.374198 -12.041131,-11.836052 -0.03891,-0.514882 -0.647204,-0.778282 -1.002631,-0.09836 0,6.695162 1.387206,19.176427 12.849563,19.172959 7.167975,-0.0018 14.088077,-15.135257 14.088077,-26.541607 0,-10.969434 -11.501979,-24.557663 -11.689668,-24.694289 -0.428657,-0.312037 -0.694074,-0.282626 -0.85765,0.08563 z"
             id="path107"
             sodipodi:nodetypes="sssscssscsssss" />
          <path
             style="fill:#000000;stroke:none;stroke-width:0.0215084;stroke-linecap:round;stroke-linejoin:round;paint-order:fill markers stroke;stop-color:#000000"
             d="m 66.87787,58.088046 c 0,-7.903011 5.267866,-11.783269 12.939529,-16.345677 5.71838,-3.400765 14.749058,-6.011288 14.814996,-12.096499 0.0068,-0.737395 0.600071,-0.972225 0.600071,-0.04939 0,8.510905 -7.807978,10.159944 -14.552504,14.053898 -9.187095,5.304181 -12.717925,9.086995 -12.799461,14.53604 z"
             id="path109"
             sodipodi:nodetypes="csssscc" />
          <path
             style="fill:#000000;stroke:none;stroke-width:0.0215084;stroke-linecap:round;stroke-linejoin:round;paint-order:fill markers stroke;stop-color:#000000"
             d="m 75.983667,54.312102 c -0.124233,1.213025 0.01707,2.522121 0.01707,2.522121 l 0.674473,0.39621 c 0.05597,-2.220205 0.502459,-3.258495 1.525329,-4.444844 0.381025,-0.441909 1.024338,-0.841443 1.554032,-0.805692 0.31536,-0.184369 0.10239,-1.35952 -0.393414,-1.47693 -1.651302,-0.391086 -3.212945,2.200222 -3.377588,3.809135 z"
             id="path111"
             sodipodi:nodetypes="sccacas" />
          <path
             style="fill:#000000;stroke:none;stroke-width:0.0215084;stroke-linecap:round;stroke-linejoin:round;paint-order:fill markers stroke;stop-color:#000000"
             d="m 76.090766,54.656704 c 0,0 -0.414029,2.45582 0.174745,3.103979 0.588739,0.64816 3.288235,-0.497056 3.811923,-0.188123 0.485053,0.286144 0.588739,0.801511 0.588739,0.801511 0,0 0.609661,-3.727234 -0.02389,-4.297614 -0.371195,-0.334302 -3.445847,0.993255 -3.858101,0.467039 l -0.693586,0.113174 z"
             id="path113"
             sodipodi:nodetypes="csscsccc" />
          <path
             style="fill:#000000;stroke:none;stroke-width:0.0215084;stroke-linecap:round;stroke-linejoin:round;paint-order:fill markers stroke;stop-color:#000000"
             d="m 80.464773,54.829189 c 0.153243,3.646278 -2.295536,5.978446 -3.571206,6.50124 -0.787408,0.322697 -0.438943,0.727101 0.0372,0.695371 0.267919,-0.01775 2.783251,-0.873283 3.51124,-2.008161 0.903211,-1.407984 0.570172,-4.124576 0.448329,-4.998275 z"
             id="path115"
             sodipodi:nodetypes="cssacc" />
        </g>
      </g>
      <g
         id="g257"
         style="stroke-width:0.812917"
         transform="translate(11.896421)">
        <path
           style="fill:#000000;stroke:none;stroke-width:0.0215084;stroke-linecap:round;stroke-linejoin:round;paint-order:fill markers stroke;stop-color:#000000"
           d="m 133.39296,63.743293 c 0.11843,-0.442326 0.38915,-0.419281 0.60594,-0.361199 2.77134,1.266861 5.15203,2.438219 9.21403,2.849023 0.40037,0 0.62819,0.129659 0.52563,0.624507 -0.44546,2.149256 -1.23175,5.700933 -2.07922,5.425826 -4.66217,-0.705436 -8.93361,-0.610954 -11.86298,3.150341 -2.38113,3.057365 -4.9568,12.048377 -11.77191,12.151937 l 2.22864,-7.679155 c 4.41561,1.084994 9.64488,-10.078516 12.01864,-11.275053 0,0 0.96526,-4.072764 1.12123,-4.886227 z"
           id="path103"
           sodipodi:nodetypes="cccscscccc" />
        <path
           style="fill:#000000;stroke:none;stroke-width:0.0215084;stroke-linecap:round;stroke-linejoin:round;paint-order:fill markers stroke;stop-color:#000000"
           d="m 121.16989,74.001944 c 0.0396,-0.773184 -0.65673,-0.761733 -0.65673,-0.125837 0,0.222868 -0.79509,7.973394 -4.44524,7.973394 -8.0161,0 -9.97692,-20.081716 -11.4072,-25.673444 -0.13174,-0.492162 -0.88345,-0.351274 -0.88345,0.158943 l 0.11775,6.617123 c 1.7425,6.918951 3.95882,26.205746 12.04198,26.205746 6.25207,0 5.22149,-14.933338 5.23285,-15.155932 z"
           id="path105"
           sodipodi:nodetypes="ssscccss" />
        <path
           id="path117"
           style="fill:#000000;stroke:none;stroke-width:0.0215083;stroke-linecap:round;stroke-linejoin:round;paint-order:fill markers stroke;stop-color:#000000"
           d="m 114.20843,93.094319 c 0.23004,-0.534405 0.49741,-0.755518 0.83529,-0.627552 1.17045,0.443319 2.25489,0.949027 3.3166,1.556288 0.77519,0.443446 0.79011,0.367066 0.51587,0.98857 l -1.92157,4.35514 c -0.36448,0.826115 -0.43192,0.638275 -1.03854,0.29058 -0.96963,-0.55573 -1.98366,-0.91024 -2.977,-1.35665 -0.93441,-0.41966 -0.75035,-0.51486 -0.41035,-1.304633 z"
           sodipodi:nodetypes="sssssssss" />
      </g>
      <g
         id="g262"
         transform="translate(6.2002408,1.4114706)"
         style="stroke-width:0.812917">
        <path
           style="fill:#000000;stroke:none;stroke-width:0.0215084;stroke-linecap:round;stroke-linejoin:round;paint-order:fill markers stroke;stop-color:#000000"
           d="m 148.99786,82.236878 c -0.22833,0.307953 -0.49437,0.327339 -0.48724,-0.0072 0,0 0.23345,-3.538855 1.22267,-6.694926 1.69106,-3.062829 4.14073,-5.028068 9.4472,-5.028068 6.19083,0 5.98483,11.352542 4.00905,15.333097 l -0.5914,-0.378373 c 0.49789,-2.498704 -0.52594,-8.229211 -4.90803,-8.19233 -4.07169,0.0343 -6.92166,2.297123 -8.69225,4.967825 z"
           id="path95"
           sodipodi:nodetypes="cccsccsc" />
        <path
           style="fill:#000000;stroke:none;stroke-width:0.0215084;stroke-linecap:round;stroke-linejoin:round;paint-order:fill markers stroke;stop-color:#000000"
           d="m 164.08938,82.523432 c -0.52417,4.848059 -3.78326,16.449573 -11.44042,16.449573 -5.31827,0 -7.35705,-7.236626 -7.35705,-10.129434 0,-7.830301 2.57028,-14.044598 2.70339,-14.275148 0.6658,-1.153171 0.95218,-0.475483 0.78403,0.152083 0,0 -1.78086,5.850308 -1.76028,9.352617 0.0239,3.825715 2.47366,7.828079 6.54367,7.828079 5.38271,0 9.03542,-6.439816 9.57037,-10.096018 z"
           id="path97"
           sodipodi:nodetypes="cssscsscc" />
        <path
           id="path119"
           style="fill:#000000;stroke:none;stroke-width:0.0215083;stroke-linecap:round;stroke-linejoin:round;paint-order:fill markers stroke;stop-color:#000000"
           d="m 153.43398,81.650746 c 0.23004,-0.534404 0.49741,-0.755518 0.8353,-0.627551 1.17044,0.443319 2.25488,0.949027 3.31659,1.556288 0.77519,0.443445 0.79011,0.367066 0.51588,0.98857 l -1.92158,4.355137 c -0.36447,0.826125 -0.43191,0.638278 -1.03854,0.290581 -0.96962,-0.555726 -1.98365,-0.910242 -2.977,-1.35665 -0.93441,-0.419656 -0.75035,-0.514865 -0.41035,-1.304632 z"
           sodipodi:nodetypes="sssssssss" />
      </g>
      <g
         id="g269"
         transform="translate(4.7423837,-1.5592459)"
         style="stroke-width:0.812917">
        <path
           style="fill:#000000;stroke:none;stroke-width:0.0215084;stroke-linecap:round;stroke-linejoin:round;paint-order:fill markers stroke;stop-color:#000000"
           d="m 188.12321,88.205815 c 0,-8.42344 1.51126,-16.093092 3.82049,-18.432288 3.65397,-3.701397 8.98084,-5.810629 10.51368,-5.37831 l 0.60918,-5.465973 c 0,-0.882901 -0.88147,-1.799156 -1.50423,-1.785457 -2.52718,0.05563 -8.76768,2.730733 -11.8654,7.365597 -2.29396,3.432226 -2.80052,15.778754 -2.80052,23.540164 0,1.952054 1.2268,1.84659 1.2268,0.156281 z"
           id="path89"
           sodipodi:nodetypes="csccsscc" />
        <path
           style="fill:#000000;stroke:none;stroke-width:0.0215084;stroke-linecap:round;stroke-linejoin:round;paint-order:fill markers stroke;stop-color:#000000"
           d="m 201.38967,62.13322 c 0,5.10003 -9.01952,16.860931 -18.44355,18.809254 l -2.40174,7.805206 c 9.74047,-1.95087 19.95242,-10.852492 22.64038,-21.301781 0.58235,-2.263956 -0.0635,-5.72049 -0.11809,-8.516655 z"
           id="path91"
           sodipodi:nodetypes="cccscc" />
        <path
           style="fill:#000000;stroke:none;stroke-width:0.0215084;stroke-linecap:round;stroke-linejoin:round;paint-order:fill markers stroke;stop-color:#000000"
           d="m 184.01528,74.001944 c 0.0396,-0.773184 -0.65673,-0.761733 -0.65673,-0.125837 0,0.222868 -0.79509,7.973394 -4.44524,7.973394 -8.0161,0 -9.97692,-20.081716 -11.4072,-25.673444 -0.13174,-0.492162 -0.88345,-0.351274 -0.88345,0.158943 l 0.11775,6.617123 c 1.74249,6.918951 3.95882,26.205746 12.04198,26.205746 6.25207,0 5.22149,-14.933338 5.23285,-15.155932 z"
           id="path93"
           sodipodi:nodetypes="ssscccss" />
        <path
           style="fill:#000000;stroke:none;stroke-width:0.0215084;stroke-linecap:round;stroke-linejoin:round;paint-order:fill markers stroke;stop-color:#000000"
           d="m 213.72633,55.644544 c 0.11843,-0.442326 0.38914,-0.419282 0.60594,-0.3612 2.77134,1.266861 5.15203,2.43822 9.21402,2.84902 0.40038,0 0.62819,0.129659 0.52563,0.62451 -0.44546,2.149253 -1.23171,5.70093 -2.07919,5.425827 -4.66216,-0.705436 -8.93364,-0.610965 -11.863,3.150341 -3.66906,4.711086 -9.50423,17.227461 -19.87676,17.351147 l 3.97131,-8.374955 c 7.96443,0.489309 14.71415,-13.930222 18.38081,-15.778463 0,0 0.96526,-4.072764 1.12124,-4.886227 z"
           id="path101"
           sodipodi:nodetypes="cccscscccc" />
        <path
           id="path121"
           style="fill:#000000;stroke:none;stroke-width:0.0215083;stroke-linecap:round;stroke-linejoin:round;paint-order:fill markers stroke;stop-color:#000000"
           d="m 187.76652,51.553746 c 0.23003,-0.534405 0.4974,-0.755518 0.83529,-0.627552 1.17048,0.443319 2.25492,0.949027 3.3166,1.556288 0.77519,0.443445 0.7901,0.367066 0.5159,0.98857 l -1.92157,4.355137 c -0.36451,0.826125 -0.43192,0.638278 -1.03857,0.290581 -0.96963,-0.555725 -1.98366,-0.910242 -2.97701,-1.356649 -0.93441,-0.419661 -0.75031,-0.514866 -0.41031,-1.304636 z"
           sodipodi:nodetypes="sssssssss" />
      </g>
      <path
         style="fill:#000000;stroke:none;stroke-width:0.0215084;stroke-linecap:round;stroke-linejoin:round;paint-order:fill markers stroke;stop-color:#000000"
         d="m 114.35716,71.024866 c 0.72802,0.40495 -0.84803,7.139006 -1.31605,7.275125 -5.03503,-0.37839 -6.47193,10.305446 -10.51146,16.409988 -3.575719,5.403661 -17.017469,4.345106 -17.017469,4.345106 -1.26775,-0.21348 -0.95085,-1.55093 0.0498,-1.55093 C 109.60919,93.18435 103.64505,68.849207 114.35702,71.024866 Z"
         id="path289"
         sodipodi:nodetypes="ccsccc" />
    </g>
  </g>
</svg>
