<?xml version="1.0" encoding="UTF-8" standalone="no"?>
<svg
   xmlns:dc="http://purl.org/dc/elements/1.1/"
   xmlns:cc="http://creativecommons.org/ns#"
   xmlns:rdf="http://www.w3.org/1999/02/22-rdf-syntax-ns#"
   xmlns:svg="http://www.w3.org/2000/svg"
   xmlns="http://www.w3.org/2000/svg"
   xmlns:xlink="http://www.w3.org/1999/xlink"
   xmlns:sodipodi="http://sodipodi.sourceforge.net/DTD/sodipodi-0.dtd"
   xmlns:inkscape="http://www.inkscape.org/namespaces/inkscape"
   version="1.1"
   id="svg351"
   width="793.59998"
   height="1122.5601"
   viewBox="0 0 793.59998 1122.5601"
   sodipodi:docname="ramadan.svg"
   inkscape:version="1.0.2 (e86c870879, 2021-01-15)">
  <metadata
     id="metadata357">
    <rdf:RDF>
      <cc:Work
         rdf:about="">
        <dc:format>image/svg+xml</dc:format>
        <dc:type
           rdf:resource="http://purl.org/dc/dcmitype/StillImage" />
        <dc:title />
      </cc:Work>
    </rdf:RDF>
  </metadata>
  <defs
     id="defs355" />
  <sodipodi:namedview
     pagecolor="#ffffff"
     bordercolor="#666666"
     borderopacity="1"
     objecttolerance="10"
     gridtolerance="10"
     guidetolerance="10"
     inkscape:pageopacity="0"
     inkscape:pageshadow="2"
     inkscape:window-width="640"
     inkscape:window-height="480"
     id="namedview353"
     showgrid="false"
     showguides="true"
     inkscape:guide-bbox="true"
     inkscape:zoom="0.11284722"
     inkscape:cx="-4333.5189"
     inkscape:cy="-3887.7642"
     inkscape:current-layer="g359"
     inkscape:document-rotation="0">
    <sodipodi:guide
       position="-124.05482,503.6776"
       orientation="0,-1"
       id="guide399" />
    <sodipodi:guide
       position="2211.1851,503.6776"
       orientation="0,-1"
       id="guide42" />
    <sodipodi:guide
       position="-194.94353,548.49127"
       orientation="0,-1"
       id="guide44" />
  </sodipodi:namedview>
  <g
     inkscape:groupmode="layer"
     inkscape:label="Image"
     id="g359">
    <image
       sodipodi:absref="/home/atmorojo/MyPaint/ramadan.png"
       xlink:href="ramadan.png"
       width="793.59998"
       height="1122.5601"
       preserveAspectRatio="none"
       id="image361"
       x="0"
       y="-0.13275966" />
    <path
       style="fill:none;stroke:#ff0000;stroke-width:0.1;stroke-linecap:round;stroke-linejoin:round;paint-order:fill markers stroke;stop-color:#000000"
       d="m 445.62584,614.80753 -1.45737,8.05646 c -5.57581,-0.41903 -7.16701,11.41223 -11.64038,18.17239 -3.95977,5.98401 -18.84512,4.81176 -18.84512,4.81176 l 0.0553,-1.7175 c 26.62982,-4.78374 20.02515,-31.73243 31.88757,-29.32311 z"
       id="path363"
       sodipodi:nodetypes="ccsccc" />
    <path
       style="fill:none;stroke:#ff0000;stroke-width:0.1;stroke-linecap:round;stroke-linejoin:round;paint-order:fill markers stroke;stop-color:#000000"
       d="m 414.57642,616.2673 1.35591,-6.69575 c 4.19856,1.2853 8.58919,0.53354 12.97335,0.17009 -0.44942,2.67464 -1.29086,5.16299 -1.1576,8.11454 -4.4153,0.91765 -8.07966,1.15427 -10.45533,3.89149 -4.77215,5.49841 -15.61282,17.69224 -26.15616,17.69224 -8.44591,0 -8.75405,-9.23186 -8.16173,-15.81419 l 0.98234,-0.36092 c -0.31558,4.87183 2.52254,8.27634 7.13005,8.27634 9.93976,0 19.60265,-10.15767 23.48917,-15.27384 z"
       id="path365"
       sodipodi:nodetypes="ccccssccsc" />
    <path
       style="fill:none;stroke:#ff0000;stroke-width:0.1;stroke-linecap:round;stroke-linejoin:round;paint-order:fill markers stroke;stop-color:#000000"
       d="m 384.15023,622.2379 c -2.39083,-15.63448 14.566,-18.4209 17.33624,-17.63959 l 0.67459,-6.05301 c 0,-0.97772 -0.97612,-1.99238 -1.6658,-1.97721 -2.79857,0.0616 -11.47878,2.19607 -14.90919,7.32871 -2.54031,3.80084 -3.6051,9.70573 -2.5347,17.59469 z"
       id="path367"
       sodipodi:nodetypes="cccsscc" />
    <path
       style="fill:none;stroke:#ff0000;stroke-width:0.1;stroke-linecap:round;stroke-linejoin:round;paint-order:fill markers stroke;stop-color:#000000"
       d="m 400.30407,602.09338 c 0.059,7.84202 -17.00929,17.0587 -25.03429,18.37997 l -1.88628,8.43813 c 5.30167,-0.90699 25.59203,-8.0425 28.90843,-20.93485 0.64492,-2.5071 -0.0701,-6.33486 -0.13087,-9.43133 z"
       id="path369"
       sodipodi:nodetypes="cccscc" />
    <path
       style="fill:none;stroke:#ff0000;stroke-width:0.1;stroke-linecap:round;stroke-linejoin:round;paint-order:fill markers stroke;stop-color:#000000"
       d="m 292.42609,617.04896 c 0.0437,-0.85622 -0.72723,-0.84354 -0.72723,-0.13934 0,0.24682 -0.8805,8.82972 -4.92267,8.82972 -8.87701,0 -10.7143,-26.76196 -12.29819,-32.95423 l -0.97833,0.17601 0.13044,7.32779 c 1.92964,7.66203 4.04985,33.5437 13.00114,33.5437 6.92354,0 5.78227,-16.53715 5.79484,-16.78365 z"
       id="path371"
       sodipodi:nodetypes="ssscccss" />
    <path
       style="fill:none;stroke:#ff0000;stroke-width:0.1;stroke-linecap:round;stroke-linejoin:round;paint-order:fill markers stroke;stop-color:#000000"
       d="m 375.19345,615.82864 c 0.0437,-0.85622 -0.72723,-0.84354 -0.72723,-0.13934 0,0.24682 -0.8805,8.82972 -4.92267,8.82972 -8.87701,0 -10.7143,-26.76196 -12.29819,-32.95423 l -0.97833,0.17601 0.13044,7.32779 c 1.92964,7.66203 4.04985,33.5437 13.00114,33.5437 6.92354,0 5.78227,-16.53715 5.79484,-16.78365 z"
       id="path373"
       sodipodi:nodetypes="ssscccss" />
    <path
       style="fill:none;stroke:#ff0000;stroke-width:0.1;stroke-linecap:round;stroke-linejoin:round;paint-order:fill markers stroke;stop-color:#000000"
       d="m 337.29174,630.0803 -0.5396,-0.008 c 0,0 0.16545,-13.69892 8.7801,-13.69892 6.49376,0 5.67921,10.70094 3.49122,15.109 l -0.6549,-0.41901 c 0.55136,-2.76706 -1.01641,-6.89577 -4.43666,-6.84095 -3.48925,0.0559 -5.56991,3.00414 -6.64016,5.85821 z"
       id="path375"
       sodipodi:nodetypes="ccsccscc" />
    <path
       style="fill:none;stroke:#ff0000;stroke-width:0.1;stroke-linecap:round;stroke-linejoin:round;paint-order:fill markers stroke;stop-color:#000000"
       d="m 350.01995,627.80989 c -0.58045,5.36873 -4.18957,18.21623 -12.66911,18.21623 -5.88943,0 -8.38386,-5.88462 -8.38386,-9.08811 0,-8.67126 2.38236,-14.90536 2.38236,-14.90536 l 1.15759,0.16591 c 0,0 -1.41341,3.449 -1.39063,7.32745 0.0249,4.23659 2.73931,8.6688 7.24645,8.6688 5.96082,0 10.00581,-7.13144 10.5982,-11.18031 z"
       id="path377"
       sodipodi:nodetypes="cssccsscc" />
    <path
       style="fill:none;stroke:#ff0000;stroke-width:0.1;stroke-linecap:round;stroke-linejoin:round;paint-order:fill markers stroke;stop-color:#000000"
       d="m 332.1747,623.21604 c 0.88624,-3.98138 12.52211,-25.09647 12.52211,-27.31252 0,-1.44109 0.0738,-2.31074 -1.51733,-2.31074 -4.63037,0 -10.78268,16.05484 -10.78268,16.05484 l 0.52115,0.1452 c 0,0 4.93476,-10.0768 7.76648,-8.06475 -1.66408,5.71764 -7.80319,15.25685 -9.65981,21.35157 z"
       id="path379"
       sodipodi:nodetypes="cssccccc" />
    <path
       style="fill:#000000;stroke:none;stroke-width:0.1;stroke-linecap:round;stroke-linejoin:round;paint-order:fill markers stroke;stop-color:#000000"
       d="m -86.049032,588.07827 c 0.806226,0.44844 -0.939091,7.90572 -1.45737,8.05646 -5.57581,-0.41903 -7.16701,11.41223 -11.64038,18.17239 -3.959768,5.98401 -18.845118,4.81176 -18.845118,4.81176 -1.40392,-0.23641 -1.05297,-1.7175 0.0553,-1.7175 26.629818,-4.78374 20.025148,-31.73243 31.887568,-29.32311 z"
       id="path381"
       sodipodi:nodetypes="ccsccc" />
    <path
       style="fill:#000000;stroke:none;stroke-width:0.1;stroke-linecap:round;stroke-linejoin:round;paint-order:fill markers stroke;stop-color:#000000"
       d="m -125.25681,607.10442 c 0,-9.3281 1.67359,-17.82146 4.23082,-20.41188 4.04641,-4.09892 9.94537,-6.43468 11.64285,-5.95593 l 0.67459,-6.05301 c 0,-0.97772 -0.97612,-1.99238 -1.6658,-1.97721 -2.79857,0.0616 -9.70931,3.02401 -13.13972,8.15665 -2.54031,3.80084 -3.10128,17.47336 -3.10128,26.06833 0,2.1617 1.35854,2.04491 1.35854,0.17305 z"
       id="path385"
       sodipodi:nodetypes="csccsscc" />
    <path
       style="fill:#000000;stroke:none;stroke-width:0.1;stroke-linecap:round;stroke-linejoin:round;paint-order:fill markers stroke;stop-color:#000000"
       d="m -110.56554,578.23168 c 0,5.64776 -9.9882,18.67176 -20.42434,20.82933 l -2.65968,8.64347 c 10.78658,-2.16039 22.09525,-12.01803 25.07188,-23.58955 0.64492,-2.5071 -0.0701,-6.33486 -0.13087,-9.43133 z"
       id="path387"
       sodipodi:nodetypes="cccscc" />
    <path
       style="fill:#000000;stroke:none;stroke-width:0.1;stroke-linecap:round;stroke-linejoin:round;paint-order:fill markers stroke;stop-color:#000000"
       d="m -129.80592,591.37508 c 0.0437,-0.85622 -0.72723,-0.84354 -0.72723,-0.13934 0,0.24682 -0.8805,8.82972 -4.92267,8.82972 -8.87701,0 -11.04843,-22.23845 -12.63232,-28.43072 -0.14604,-0.54502 -0.97833,-0.389 -0.97833,0.17601 l 0.13044,7.32779 c 1.92964,7.66203 4.38398,29.02019 13.33527,29.02019 6.92354,0 5.78227,-16.53715 5.79484,-16.78365 z"
       id="path391"
       sodipodi:nodetypes="ssscccss" />
    <path
       style="fill:#000000;stroke:none;stroke-width:0.1;stroke-linecap:round;stroke-linejoin:round;paint-order:fill markers stroke;stop-color:#000000"
       d="m -168.58411,600.49443 c -0.25291,0.34103 -0.54748,0.36248 -0.5396,-0.008 0,0 0.25841,-3.91892 1.35399,-7.41395 1.8727,-3.39177 4.58545,-5.56807 10.4618,-5.56807 6.85574,0 6.62761,12.57178 4.43962,16.97984 l -0.6549,-0.41901 c 0.55136,-2.76706 -0.58242,-9.11301 -5.43514,-9.07217 -4.509,0.038 -7.66505,2.54383 -9.62577,5.50136 z"
       id="path393"
       sodipodi:nodetypes="cccsccsc" />
    <path
       style="fill:#000000;stroke:none;stroke-width:0.1;stroke-linecap:round;stroke-linejoin:round;paint-order:fill markers stroke;stop-color:#000000"
       d="m -151.87181,600.81176 c -0.58045,5.36873 -4.18957,18.21623 -12.66911,18.21623 -5.88943,0 -8.14716,-8.01383 -8.14716,-11.21732 0,-8.67126 2.84631,-15.55296 2.99372,-15.80827 0.73729,-1.27702 1.05445,-0.52655 0.86824,0.16841 0,0 -1.97212,6.47862 -1.94934,10.35707 0.0249,4.23659 2.73931,8.6688 7.24645,8.6688 5.96082,0 10.00581,-7.13144 10.5982,-11.18031 z"
       id="path395"
       sodipodi:nodetypes="cssscsscc" />
    <path
       style="fill:#000000;stroke:none;stroke-width:0.1;stroke-linecap:round;stroke-linejoin:round;paint-order:fill markers stroke;stop-color:#000000"
       d="m -219.22452,588.09243 c 0.91071,1.17989 -0.4879,6.83636 -1.45737,8.05646 -5.57581,-0.41903 -7.16701,11.41223 -11.64038,18.17239 -3.95977,5.98401 -18.84512,4.81176 -18.84512,4.81176 l 0.0553,-1.7175 c 26.62982,-4.78374 20.02515,-31.73243 31.88757,-29.32311 z"
       id="path46"
       sodipodi:nodetypes="ccsccc" />
    <path
       style="fill:#000000;stroke:none;stroke-width:0.1;stroke-linecap:round;stroke-linejoin:round;paint-order:fill markers stroke;stop-color:#000000"
       d="m -173.20759,641.78146 1.1736,-6.12005 c 0.18727,-0.46418 0.40082,-0.62047 0.66682,-0.61334 4.19856,1.2853 8.10468,0.57118 12.48884,0.20773 0.29312,0.12241 0.61304,0.39488 0.49946,0.94287 -0.45611,2.20062 -1.37768,4.03481 -2.3142,6.49339 -0.12685,0.333 -0.39184,0.64678 -0.71391,0.62406 -4.71433,0.45046 -8.7194,0.46492 -11.09507,3.20214 -4.77215,5.49841 -6.27144,17.8462 -16.81478,17.8462 -5.85448,0 -8.16173,-8.71201 -8.16173,-15.81419 l 0.98234,-0.36092 c -0.31558,4.87183 2.13694,8.79307 6.74445,8.79307 9.93976,0 12.65766,-10.08479 16.54418,-15.20096 z"
       id="path50"
       sodipodi:nodetypes="ccccsscssccsc" />
    <path
       style="fill:#000000;stroke:none;stroke-width:0.1;stroke-linecap:round;stroke-linejoin:round;paint-order:fill markers stroke;stop-color:#000000"
       d="m -96.903933,571.04613 c 0.13125,-0.48983 0.43094,-0.46431 0.67099,-0.39999 3.06899,1.40292 5.70537,2.70008 10.2036,3.155 0.44339,0 0.69567,0.14359 0.58209,0.69158 -0.49331,2.38008 -1.36401,6.3132 -2.30251,6.00855 -5.16287,-0.7812 -9.89308,-0.67658 -13.137047,3.48868 -4.06313,5.21705 -10.52496,19.07766 -22.01149,19.21463 l 4.39783,-9.27441 c 8.81977,0.54186 16.29439,-15.4263 20.354887,-17.47304 0,0 1.0689,-4.51017 1.24165,-5.411 z"
       id="path52"
       sodipodi:nodetypes="cccscscccc" />
    <path
       style="fill:#000000;stroke:none;stroke-width:0.1;stroke-linecap:round;stroke-linejoin:round;paint-order:fill markers stroke;stop-color:#000000"
       d="m -185.86495,580.01467 c 0.13125,-0.48983 0.43094,-0.46431 0.67099,-0.39999 3.06899,1.40292 5.70537,2.70008 10.2036,3.155 0.44339,0 0.69567,0.14359 0.58209,0.69158 -0.49331,2.38008 -1.36401,6.3132 -2.30251,6.00855 -5.16287,-0.7812 -9.89307,-0.67657 -13.13704,3.48868 -2.63686,3.38572 -5.48917,13.34235 -13.03619,13.45703 l 2.468,-8.50388 c 4.88982,1.20152 10.68069,-11.16093 13.30941,-12.48597 0,0 1.0689,-4.51017 1.24165,-5.411 z"
       id="path54"
       sodipodi:nodetypes="cccscscccc" />
    <path
       style="fill:#000000;stroke:none;stroke-width:0.1;stroke-linecap:round;stroke-linejoin:round;paint-order:fill markers stroke;stop-color:#000000"
       d="m -199.40078,591.37508 c 0.0437,-0.85622 -0.72723,-0.84354 -0.72723,-0.13934 0,0.24682 -0.8805,8.82972 -4.92267,8.82972 -8.87701,0 -11.04843,-22.23845 -12.63232,-28.43072 -0.14604,-0.54502 -0.97833,-0.389 -0.97833,0.17601 l 0.13044,7.32779 c 1.92964,7.66203 4.38398,29.02019 13.33527,29.02019 6.92354,0 5.78227,-16.53715 5.79484,-16.78365 z"
       id="path56"
       sodipodi:nodetypes="ssscccss" />
    <path
       style="fill:none;stroke:#ff0000;stroke-width:0.1;stroke-linecap:round;stroke-linejoin:round;paint-order:fill markers stroke;stop-color:#000000"
       d="m 213.8955,588.1409 c -0.5776,2.1133 -1.67971,5.39718 -1.67971,9.40908 0,6.57362 1.03764,22.25628 1.07295,22.56643 0.13615,1.19582 0.99389,1.02225 0.93644,0.007 -0.45696,-8.07509 -0.76223,-16.02725 -0.87482,-23.91746 0,0 11.99232,16.53075 11.99232,23.83967 0,12.19925 -9.38373,17.09827 -12.98028,17.09827 -10.21651,0 -11.94156,-12.7591 -11.94156,-12.7591 l -1.11028,-0.10892 c 0,3.53487 0.14339,20.88782 12.83677,20.88398 7.9378,-0.002 15.74931,-18.15588 15.74931,-30.78725 0,-12.14753 -12.98673,-26.27391 -13.14571,-26.47595 -0.29802,-0.37875 -0.69419,-0.3457 -0.85543,0.24425 z"
       id="path58"
       sodipodi:nodetypes="sssscssccssss" />
    <path
       style="fill:none;stroke:#ff0000;stroke-width:0.1;stroke-linecap:round;stroke-linejoin:round;paint-order:fill markers stroke;stop-color:#000000"
       d="m 199.31056,624.27587 c 0,-5.39215 5.44067,-11.51109 13.93626,-16.56349 6.33251,-3.766 15.33321,-8.54269 15.40623,-15.28144 0.009,-0.81659 0.66452,-1.07664 0.66452,-0.0547 0,9.42496 -7.64668,13.1369 -15.11555,17.44906 -10.17379,5.87384 -13.78118,11.07253 -13.78118,14.5595 z"
       id="path60"
       sodipodi:nodetypes="csssscc" />
    <path
       style="fill:none;stroke:#ff0000;stroke-width:0.1;stroke-linecap:round;stroke-linejoin:round;paint-order:fill markers stroke;stop-color:#000000"
       d="m 190.95485,613.46288 c -2.90087,0 -4.05303,7.54604 -4.05303,7.54604 l 0.1808,3.70391 0.47297,0.75581 c 0.0887,-3.51477 2.25763,-6.72882 3.37758,-6.72882 1.05971,0 1.73887,0.56479 1.73887,0.56479 0.38324,-0.13499 0.42428,-0.94598 0.42428,-1.19318 0,-1.93182 -1.1482,-4.64855 -2.14143,-4.64855 z"
       id="path62"
       sodipodi:nodetypes="scccscsss" />
    <path
       style="fill:none;stroke:#ff0000;stroke-width:0.1;stroke-linecap:round;stroke-linejoin:round;paint-order:fill markers stroke;stop-color:#000000"
       d="m 187.22482,621.26565 c 0,0 -0.65547,3.88776 0.27657,4.91385 0.93203,1.02608 5.20553,-0.78688 6.03457,-0.29782 0.76788,0.45298 0.93204,1.26885 0.93204,1.26885 0,0 0.96514,-5.90051 -0.0375,-6.80347 -0.58761,-0.5292 -5.45504,1.57241 -6.10768,0.73936 l -1.09802,0.17919 z"
       id="path64"
       sodipodi:nodetypes="csscsccc" />
    <path
       style="fill:none;stroke:#ff0000;stroke-width:0.1;stroke-linecap:round;stroke-linejoin:round;paint-order:fill markers stroke;stop-color:#000000"
       d="m 194.22565,621.37818 c 0.24235,5.77235 -3.90749,8.72809 -5.79048,9.83156 -0.006,0.12514 -0.0584,1.27385 -0.0584,1.27385 l 5.67845,-2.09221 c 1.27451,-4.12977 0.78273,-7.6164 0.58983,-8.99953 z"
       id="path66"
       sodipodi:nodetypes="cccccc" />
    <path
       style="fill:#000000;stroke:none;stroke-width:0.1;stroke-linecap:round;stroke-linejoin:round;paint-order:fill markers stroke;stop-color:#000000"
       d="m -243.5459,537.96521 c -0.5776,2.1133 -1.99579,4.15545 -1.99579,8.16735 0,6.57362 6.03311,25.0963 6.30439,34.69359 0.034,1.20307 0.90305,1.02333 0.93644,0.007 0.30421,-9.25879 -5.67759,-26.91268 -5.79018,-34.80289 0,0 11.99232,16.53075 11.99232,23.83967 0,12.19925 -9.38373,17.09827 -12.98028,17.09827 -10.21651,0 -13.04368,-9.27357 -13.33435,-13.10722 -0.0432,-0.57018 -0.71669,-0.86187 -1.11028,-0.10892 0,7.41421 1.53618,21.23594 14.22956,21.2321 7.9378,-0.002 15.74931,-18.15588 15.74931,-30.78725 0,-12.14753 -12.98673,-26.27391 -13.14571,-26.47595 -0.29802,-0.37875 -0.69419,-0.3457 -0.85543,0.24425 z"
       id="path68"
       sodipodi:nodetypes="sssscssscssss" />
    <path
       style="fill:#000000;stroke:none;stroke-width:0.1;stroke-linecap:round;stroke-linejoin:round;paint-order:fill markers stroke;stop-color:#000000"
       d="m -259.52363,573.75206 c 0,-8.75178 5.83362,-13.04877 14.32921,-18.10117 6.33251,-3.766 16.33305,-6.65689 16.40607,-13.39564 0.009,-0.81659 0.66452,-1.07664 0.66452,-0.0547 0,9.42496 -8.64652,11.2511 -16.11539,15.56326 -10.17379,5.87384 -14.08382,10.06292 -14.17413,16.09718 z"
       id="path70"
       sodipodi:nodetypes="csssscc" />
    <path
       style="fill:#000000;stroke:none;stroke-width:0.1;stroke-linecap:round;stroke-linejoin:round;paint-order:fill markers stroke;stop-color:#000000"
       d="m -249.4399,569.57059 c -0.13745,1.3433 0.019,2.79299 0.019,2.79299 l 0.74691,0.43876 c 0.062,-2.45865 0.55644,-3.60845 1.68917,-4.92221 0.42193,-0.48937 1.13435,-0.93181 1.72091,-0.89222 0.34906,-0.20416 0.11335,-1.50553 -0.43565,-1.63555 -1.82865,-0.43309 -3.55803,2.43652 -3.74034,4.21823 z"
       id="path72"
       sodipodi:nodetypes="sccacas" />
    <path
       style="fill:#000000;stroke:none;stroke-width:0.1;stroke-linecap:round;stroke-linejoin:round;paint-order:fill markers stroke;stop-color:#000000"
       d="m -249.3213,569.9522 c 0,0 -0.45851,2.71957 0.19347,3.43734 0.65197,0.71777 3.64138,-0.55044 4.22131,-0.20833 0.53715,0.31687 0.65198,0.88759 0.65198,0.88759 0,0 0.67514,-4.12753 -0.0262,-4.75917 -0.41105,-0.37019 -3.81592,1.09993 -4.27245,0.5172 l -0.76809,0.12534 z"
       id="path74"
       sodipodi:nodetypes="csscsccc" />
    <path
       style="fill:#000000;stroke:none;stroke-width:0.1;stroke-linecap:round;stroke-linejoin:round;paint-order:fill markers stroke;stop-color:#000000"
       d="m -244.47752,570.14321 c 0.16953,4.03788 -2.5421,6.62052 -3.95477,7.19946 -0.87198,0.35735 -0.48607,0.80519 0.0413,0.77005 0.29668,-0.0198 3.08215,-0.96707 3.88834,-2.22383 1.0002,-1.5592 0.63139,-4.56755 0.49645,-5.53508 z"
       id="path76"
       sodipodi:nodetypes="cssacc" />
    <path
       id="rect80"
       style="fill:#000000;stroke:none;stroke-width:0.0999995;stroke-linecap:round;stroke-linejoin:round;paint-order:fill markers stroke;stop-color:#000000"
       d="m -207.10989,612.51794 c 0.25478,-0.5918 0.55083,-0.83666 0.925,-0.69495 1.29618,0.49093 2.49709,1.05095 3.67281,1.72343 0.85843,0.49107 0.87495,0.40649 0.57129,1.09474 l -2.12796,4.82287 c -0.40363,0.91485 -0.47829,0.70683 -1.15009,0.32179 -1.07376,-0.61541 -2.1967,-1.008 -3.29672,-1.50235 -1.03476,-0.46473 -0.83091,-0.57016 -0.4544,-1.44475 z"
       sodipodi:nodetypes="sssssssss" />
    <path
       id="path83"
       style="fill:#000000;stroke:none;stroke-width:0.0999995;stroke-linecap:round;stroke-linejoin:round;paint-order:fill markers stroke;stop-color:#000000"
       d="m -163.67159,599.84535 c 0.25478,-0.5918 0.55083,-0.83666 0.925,-0.69495 1.29618,0.49093 2.49709,1.05095 3.67281,1.72343 0.85843,0.49107 0.87495,0.40649 0.57129,1.09474 l -2.12796,4.82287 c -0.40363,0.91485 -0.47829,0.70683 -1.15009,0.32179 -1.07376,-0.61541 -2.1967,-1.008 -3.29672,-1.50235 -1.03476,-0.46473 -0.83091,-0.57016 -0.4544,-1.44475 z"
       sodipodi:nodetypes="sssssssss" />
    <path
       id="path85"
       style="fill:#000000;stroke:none;stroke-width:0.0999995;stroke-linecap:round;stroke-linejoin:round;paint-order:fill markers stroke;stop-color:#000000"
       d="m -125.65179,566.51599 c 0.25478,-0.5918 0.55083,-0.83666 0.925,-0.69495 1.29618,0.49093 2.49709,1.05095 3.67281,1.72343 0.85843,0.49107 0.87495,0.40649 0.57129,1.09474 l -2.12796,4.82287 c -0.40363,0.91485 -0.47829,0.70683 -1.15009,0.32179 -1.07376,-0.61541 -2.1967,-1.008 -3.29672,-1.50235 -1.03476,-0.46473 -0.83091,-0.57016 -0.4544,-1.44475 z"
       sodipodi:nodetypes="sssssssss" />
    <path
       style="fill:#000000;stroke:none;stroke-width:0.1;stroke-linecap:round;stroke-linejoin:round;paint-order:fill markers stroke;stop-color:#000000"
       d="m -86.049032,588.07827 c 0.806226,0.44844 -0.939091,7.90572 -1.45737,8.05646 -5.57581,-0.41903 -7.16701,11.41223 -11.64038,18.17239 -3.959768,5.98401 -18.845118,4.81176 -18.845118,4.81176 -1.40392,-0.23641 -1.05297,-1.7175 0.0553,-1.7175 26.629818,-4.78374 20.025148,-31.73243 31.887568,-29.32311 z"
       id="path87"
       sodipodi:nodetypes="ccsccc" />
    <path
       style="fill:#000000;stroke:none;stroke-width:0.1;stroke-linecap:round;stroke-linejoin:round;paint-order:fill markers stroke;stop-color:#000000"
       d="m -125.25681,607.10442 c 0,-9.3281 1.67359,-17.82146 4.23082,-20.41188 4.04641,-4.09892 9.94537,-6.43468 11.64285,-5.95593 l 0.67459,-6.05301 c 0,-0.97772 -0.97612,-1.99238 -1.6658,-1.97721 -2.79857,0.0616 -9.70931,3.02401 -13.13972,8.15665 -2.54031,3.80084 -3.10128,17.47336 -3.10128,26.06833 0,2.1617 1.35854,2.04491 1.35854,0.17305 z"
       id="path89"
       sodipodi:nodetypes="csccsscc" />
    <path
       style="fill:#000000;stroke:none;stroke-width:0.1;stroke-linecap:round;stroke-linejoin:round;paint-order:fill markers stroke;stop-color:#000000"
       d="m -110.56554,578.23168 c 0,5.64776 -9.9882,18.67176 -20.42434,20.82933 l -2.65968,8.64347 c 10.78658,-2.16039 22.09525,-12.01803 25.07188,-23.58955 0.64492,-2.5071 -0.0701,-6.33486 -0.13087,-9.43133 z"
       id="path91"
       sodipodi:nodetypes="cccscc" />
    <path
       style="fill:#000000;stroke:none;stroke-width:0.1;stroke-linecap:round;stroke-linejoin:round;paint-order:fill markers stroke;stop-color:#000000"
       d="m -129.80592,591.37508 c 0.0437,-0.85622 -0.72723,-0.84354 -0.72723,-0.13934 0,0.24682 -0.8805,8.82972 -4.92267,8.82972 -8.87701,0 -11.04843,-22.23845 -12.63232,-28.43072 -0.14604,-0.54502 -0.97833,-0.389 -0.97833,0.17601 l 0.13044,7.32779 c 1.92964,7.66203 4.38398,29.02019 13.33527,29.02019 6.92354,0 5.78227,-16.53715 5.79484,-16.78365 z"
       id="path93"
       sodipodi:nodetypes="ssscccss" />
    <path
       style="fill:#000000;stroke:none;stroke-width:0.1;stroke-linecap:round;stroke-linejoin:round;paint-order:fill markers stroke;stop-color:#000000"
       d="m -168.58411,600.49443 c -0.25291,0.34103 -0.54748,0.36248 -0.5396,-0.008 0,0 0.25841,-3.91892 1.35399,-7.41395 1.8727,-3.39177 4.58545,-5.56807 10.4618,-5.56807 6.85574,0 6.62761,12.57178 4.43962,16.97984 l -0.6549,-0.41901 c 0.55136,-2.76706 -0.58242,-9.11301 -5.43514,-9.07217 -4.509,0.038 -7.66505,2.54383 -9.62577,5.50136 z"
       id="path95"
       sodipodi:nodetypes="cccsccsc" />
    <path
       style="fill:#000000;stroke:none;stroke-width:0.1;stroke-linecap:round;stroke-linejoin:round;paint-order:fill markers stroke;stop-color:#000000"
       d="m -151.87181,600.81176 c -0.58045,5.36873 -4.18957,18.21623 -12.66911,18.21623 -5.88943,0 -8.14716,-8.01383 -8.14716,-11.21732 0,-8.67126 2.84631,-15.55296 2.99372,-15.80827 0.73729,-1.27702 1.05445,-0.52655 0.86824,0.16841 0,0 -1.97212,6.47862 -1.94934,10.35707 0.0249,4.23659 2.73931,8.6688 7.24645,8.6688 5.96082,0 10.00581,-7.13144 10.5982,-11.18031 z"
       id="path97"
       sodipodi:nodetypes="cssscsscc" />
    <path
       style="fill:#000000;stroke:none;stroke-width:0.1;stroke-linecap:round;stroke-linejoin:round;paint-order:fill markers stroke;stop-color:#000000"
       d="m -219.22452,588.09243 c 0.91071,1.17989 -0.4879,6.83636 -1.45737,8.05646 -5.57581,-0.41903 -7.16701,11.41223 -11.64038,18.17239 -3.95977,5.98401 -18.84512,4.81176 -18.84512,4.81176 l 0.0553,-1.7175 c 26.62982,-4.78374 20.02515,-31.73243 31.88757,-29.32311 z"
       id="path99"
       sodipodi:nodetypes="ccsccc" />
    <path
       style="fill:#000000;stroke:none;stroke-width:0.1;stroke-linecap:round;stroke-linejoin:round;paint-order:fill markers stroke;stop-color:#000000"
       d="m -96.903933,571.04613 c 0.13125,-0.48983 0.43094,-0.46431 0.67099,-0.39999 3.06899,1.40292 5.70537,2.70008 10.2036,3.155 0.44339,0 0.69567,0.14359 0.58209,0.69158 -0.49331,2.38008 -1.36401,6.3132 -2.30251,6.00855 -5.16287,-0.7812 -9.89308,-0.67658 -13.137047,3.48868 -4.06313,5.21705 -10.52496,19.07766 -22.01149,19.21463 l 4.39783,-9.27441 c 8.81977,0.54186 16.29439,-15.4263 20.354887,-17.47304 0,0 1.0689,-4.51017 1.24165,-5.411 z"
       id="path101"
       sodipodi:nodetypes="cccscscccc" />
    <path
       style="fill:#000000;stroke:none;stroke-width:0.1;stroke-linecap:round;stroke-linejoin:round;paint-order:fill markers stroke;stop-color:#000000"
       d="m -185.86495,580.01467 c 0.13125,-0.48983 0.43094,-0.46431 0.67099,-0.39999 3.06899,1.40292 5.70537,2.70008 10.2036,3.155 0.44339,0 0.69567,0.14359 0.58209,0.69158 -0.49331,2.38008 -1.36401,6.3132 -2.30251,6.00855 -5.16287,-0.7812 -9.89307,-0.67657 -13.13704,3.48868 -2.63686,3.38572 -5.48917,13.34235 -13.03619,13.45703 l 2.468,-8.50388 c 4.88982,1.20152 10.68069,-11.16093 13.30941,-12.48597 0,0 1.0689,-4.51017 1.24165,-5.411 z"
       id="path103"
       sodipodi:nodetypes="cccscscccc" />
    <path
       style="fill:#000000;stroke:none;stroke-width:0.1;stroke-linecap:round;stroke-linejoin:round;paint-order:fill markers stroke;stop-color:#000000"
       d="m -199.40078,591.37508 c 0.0437,-0.85622 -0.72723,-0.84354 -0.72723,-0.13934 0,0.24682 -0.8805,8.82972 -4.92267,8.82972 -8.87701,0 -11.04843,-22.23845 -12.63232,-28.43072 -0.14604,-0.54502 -0.97833,-0.389 -0.97833,0.17601 l 0.13044,7.32779 c 1.92964,7.66203 4.38398,29.02019 13.33527,29.02019 6.92354,0 5.78227,-16.53715 5.79484,-16.78365 z"
       id="path105"
       sodipodi:nodetypes="ssscccss" />
    <path
       style="fill:#000000;stroke:none;stroke-width:0.1;stroke-linecap:round;stroke-linejoin:round;paint-order:fill markers stroke;stop-color:#000000"
       d="m -243.5459,537.96521 c -0.5776,2.1133 -1.99579,4.15545 -1.99579,8.16735 0,6.57362 6.03311,25.0963 6.30439,34.69359 0.034,1.20307 0.90305,1.02333 0.93644,0.007 0.30421,-9.25879 -5.67759,-26.91268 -5.79018,-34.80289 0,0 11.99232,16.53075 11.99232,23.83967 0,12.19925 -9.38373,17.09827 -12.98028,17.09827 -10.21651,0 -13.04368,-9.27357 -13.33435,-13.10722 -0.0432,-0.57018 -0.71669,-0.86187 -1.11028,-0.10892 0,7.41421 1.53618,21.23594 14.22956,21.2321 7.9378,-0.002 15.74931,-18.15588 15.74931,-30.78725 0,-12.14753 -12.98673,-26.27391 -13.14571,-26.47595 -0.29802,-0.37875 -0.69419,-0.3457 -0.85543,0.24425 z"
       id="path107"
       sodipodi:nodetypes="sssscssscssss" />
    <path
       style="fill:#000000;stroke:none;stroke-width:0.1;stroke-linecap:round;stroke-linejoin:round;paint-order:fill markers stroke;stop-color:#000000"
       d="m -259.52363,573.75206 c 0,-8.75178 5.83362,-13.04877 14.32921,-18.10117 6.33251,-3.766 16.33305,-6.65689 16.40607,-13.39564 0.009,-0.81659 0.66452,-1.07664 0.66452,-0.0547 0,9.42496 -8.64652,11.2511 -16.11539,15.56326 -10.17379,5.87384 -14.08382,10.06292 -14.17413,16.09718 z"
       id="path109"
       sodipodi:nodetypes="csssscc" />
    <path
       style="fill:#000000;stroke:none;stroke-width:0.1;stroke-linecap:round;stroke-linejoin:round;paint-order:fill markers stroke;stop-color:#000000"
       d="m -249.4399,569.57059 c -0.13745,1.3433 0.019,2.79299 0.019,2.79299 l 0.74691,0.43876 c 0.062,-2.45865 0.55644,-3.60845 1.68917,-4.92221 0.42193,-0.48937 1.13435,-0.93181 1.72091,-0.89222 0.34906,-0.20416 0.11335,-1.50553 -0.43565,-1.63555 -1.82865,-0.43309 -3.55803,2.43652 -3.74034,4.21823 z"
       id="path111"
       sodipodi:nodetypes="sccacas" />
    <path
       style="fill:#000000;stroke:none;stroke-width:0.1;stroke-linecap:round;stroke-linejoin:round;paint-order:fill markers stroke;stop-color:#000000"
       d="m -249.3213,569.9522 c 0,0 -0.45851,2.71957 0.19347,3.43734 0.65197,0.71777 3.64138,-0.55044 4.22131,-0.20833 0.53715,0.31687 0.65198,0.88759 0.65198,0.88759 0,0 0.67514,-4.12753 -0.0262,-4.75917 -0.41105,-0.37019 -3.81592,1.09993 -4.27245,0.5172 l -0.76809,0.12534 z"
       id="path113"
       sodipodi:nodetypes="csscsccc" />
    <path
       style="fill:#000000;stroke:none;stroke-width:0.1;stroke-linecap:round;stroke-linejoin:round;paint-order:fill markers stroke;stop-color:#000000"
       d="m -244.47752,570.14321 c 0.16953,4.03788 -2.5421,6.62052 -3.95477,7.19946 -0.87198,0.35735 -0.48607,0.80519 0.0413,0.77005 0.29668,-0.0198 3.08215,-0.96707 3.88834,-2.22383 1.0002,-1.5592 0.63139,-4.56755 0.49645,-5.53508 z"
       id="path115"
       sodipodi:nodetypes="cssacc" />
    <path
       id="path117"
       style="fill:#000000;stroke:none;stroke-width:0.0999995;stroke-linecap:round;stroke-linejoin:round;paint-order:fill markers stroke;stop-color:#000000"
       d="m -207.10989,612.51794 c 0.25478,-0.5918 0.55083,-0.83666 0.925,-0.69495 1.29618,0.49093 2.49709,1.05095 3.67281,1.72343 0.85843,0.49107 0.87495,0.40649 0.57129,1.09474 l -2.12796,4.82287 c -0.40363,0.91485 -0.47829,0.70683 -1.15009,0.32179 -1.07376,-0.61541 -2.1967,-1.008 -3.29672,-1.50235 -1.03476,-0.46473 -0.83091,-0.57016 -0.4544,-1.44475 z"
       sodipodi:nodetypes="sssssssss" />
    <path
       id="path119"
       style="fill:#000000;stroke:none;stroke-width:0.0999995;stroke-linecap:round;stroke-linejoin:round;paint-order:fill markers stroke;stop-color:#000000"
       d="m -163.67159,599.84535 c 0.25478,-0.5918 0.55083,-0.83666 0.925,-0.69495 1.29618,0.49093 2.49709,1.05095 3.67281,1.72343 0.85843,0.49107 0.87495,0.40649 0.57129,1.09474 l -2.12796,4.82287 c -0.40363,0.91485 -0.47829,0.70683 -1.15009,0.32179 -1.07376,-0.61541 -2.1967,-1.008 -3.29672,-1.50235 -1.03476,-0.46473 -0.83091,-0.57016 -0.4544,-1.44475 z"
       sodipodi:nodetypes="sssssssss" />
    <path
       id="path121"
       style="fill:#000000;stroke:none;stroke-width:0.0999995;stroke-linecap:round;stroke-linejoin:round;paint-order:fill markers stroke;stop-color:#000000"
       d="m -125.65179,566.51599 c 0.25478,-0.5918 0.55083,-0.83666 0.925,-0.69495 1.29618,0.49093 2.49709,1.05095 3.67281,1.72343 0.85843,0.49107 0.87495,0.40649 0.57129,1.09474 l -2.12796,4.82287 c -0.40363,0.91485 -0.47829,0.70683 -1.15009,0.32179 -1.07376,-0.61541 -2.1967,-1.008 -3.29672,-1.50235 -1.03476,-0.46473 -0.83091,-0.57016 -0.4544,-1.44475 z"
       sodipodi:nodetypes="sssssssss" />
    <image
       sodipodi:absref="/home/atmorojo/Downloads/julie-ronberg-GfvR2O5pKpc-unsplash.jpg"
       xlink:href="../Downloads/julie-ronberg-GfvR2O5pKpc-unsplash.jpg"
       inkscape:export-ydpi="96"
       inkscape:export-xdpi="96"
       inkscape:export-filename="/home/atmorojo/ramadan mubarak.png"
       style="fill:#f9dfb9;fill-opacity:1"
       y="-6321.1611"
       x="-5751.7129"
       id="image488"
       preserveAspectRatio="none"
       height="5184"
       width="3456" />
    <g
       id="g314"
       transform="matrix(7.1000325,0,0,7.1000325,-5107.672,-5550.3258)"
       style="opacity:0.803843;fill:#ffffff;stroke-width:0.532325">
      <path
         style="fill:#ffffff;stroke:none;stroke-width:0.0140844;stroke-linecap:round;stroke-linejoin:round;paint-order:fill markers stroke;stop-color:#000000"
         d="m 223.52851,71.024866 c 0.72802,0.40495 -0.84803,7.139006 -1.31605,7.275125 -5.03503,-0.37839 -6.47193,10.305446 -10.51146,16.409988 -3.57572,5.403661 -17.01747,4.345106 -17.01747,4.345106 -1.26775,-0.21348 -0.95085,-1.55093 0.0498,-1.55093 24.04721,-4.319805 18.08307,-28.654948 28.79504,-26.479289 z"
         id="path87-3"
         sodipodi:nodetypes="ccsccc" />
      <g
         id="g252"
         transform="translate(14.088683,1.3639636)"
         style="fill:#ffffff;stroke-width:0.532325">
        <g
           id="g276"
           transform="translate(-4.4661741,7.9092505)"
           style="fill:#ffffff;stroke-width:0.532325">
          <path
             style="fill:#ffffff;stroke:none;stroke-width:0.0140844;stroke-linecap:round;stroke-linejoin:round;paint-order:fill markers stroke;stop-color:#000000"
             d="m 81.268192,26.110913 c -0.803099,1.808 -1.764377,3.413417 -1.764377,7.036234 0,5.936098 5.448003,22.662404 5.692987,31.328927 0.03072,1.086392 0.815463,0.924084 0.8456,0.0065 0.274745,-8.360849 -5.126945,-24.302624 -5.228617,-31.427626 0,0 10.829283,14.92756 10.829283,21.527646 0,11.016137 -8.473679,15.440039 -11.721436,15.440039 -9.225695,0 -11.778673,-8.374198 -12.041131,-11.836052 -0.03891,-0.514882 -0.647204,-0.778282 -1.002631,-0.09836 0,6.695162 1.387206,19.176427 12.849563,19.172959 7.167975,-0.0018 14.088077,-15.135257 14.088077,-26.541607 0,-10.969434 -11.501979,-24.557663 -11.689668,-24.694289 -0.428657,-0.312037 -0.694074,-0.282626 -0.85765,0.08563 z"
             id="path107-0"
             sodipodi:nodetypes="sssscssscsssss" />
          <path
             style="fill:#ffffff;stroke:none;stroke-width:0.0140844;stroke-linecap:round;stroke-linejoin:round;paint-order:fill markers stroke;stop-color:#000000"
             d="m 66.87787,58.088046 c 0,-7.903011 5.267866,-11.783269 12.939529,-16.345677 5.71838,-3.400765 14.749058,-6.011288 14.814996,-12.096499 0.0068,-0.737395 0.600071,-0.972225 0.600071,-0.04939 0,8.510905 -7.807978,10.159944 -14.552504,14.053898 -9.187095,5.304181 -12.717925,9.086995 -12.799461,14.53604 z"
             id="path109-8"
             sodipodi:nodetypes="csssscc" />
          <path
             style="fill:#ffffff;stroke:none;stroke-width:0.0140844;stroke-linecap:round;stroke-linejoin:round;paint-order:fill markers stroke;stop-color:#000000"
             d="m 75.983667,54.312102 c -0.124233,1.213025 0.01707,2.522121 0.01707,2.522121 l 0.674473,0.39621 c 0.05597,-2.220205 0.502459,-3.258495 1.525329,-4.444844 0.381025,-0.441909 1.024338,-0.841443 1.554032,-0.805692 0.31536,-0.184369 0.10239,-1.35952 -0.393414,-1.47693 -1.651302,-0.391086 -3.212945,2.200222 -3.377588,3.809135 z"
             id="path111-5"
             sodipodi:nodetypes="sccacas" />
          <path
             style="fill:#ffffff;stroke:none;stroke-width:0.0140844;stroke-linecap:round;stroke-linejoin:round;paint-order:fill markers stroke;stop-color:#000000"
             d="m 76.090766,54.656704 c 0,0 -0.414029,2.45582 0.174745,3.103979 0.588739,0.64816 3.288235,-0.497056 3.811923,-0.188123 0.485053,0.286144 0.588739,0.801511 0.588739,0.801511 0,0 0.609661,-3.727234 -0.02389,-4.297614 -0.371195,-0.334302 -3.445847,0.993255 -3.858101,0.467039 l -0.693586,0.113174 z"
             id="path113-5"
             sodipodi:nodetypes="csscsccc" />
          <path
             style="fill:#ffffff;stroke:none;stroke-width:0.0140844;stroke-linecap:round;stroke-linejoin:round;paint-order:fill markers stroke;stop-color:#000000"
             d="m 80.464773,54.829189 c 0.153243,3.646278 -2.295536,5.978446 -3.571206,6.50124 -0.787408,0.322697 -0.438943,0.727101 0.0372,0.695371 0.267919,-0.01775 2.783251,-0.873283 3.51124,-2.008161 0.903211,-1.407984 0.570172,-4.124576 0.448329,-4.998275 z"
             id="path115-5"
             sodipodi:nodetypes="cssacc" />
        </g>
      </g>
      <g
         id="g257"
         style="fill:#ffffff;stroke-width:0.532325"
         transform="translate(11.896421)">
        <path
           style="fill:#ffffff;stroke:none;stroke-width:0.0140844;stroke-linecap:round;stroke-linejoin:round;paint-order:fill markers stroke;stop-color:#000000"
           d="m 133.39296,63.743293 c 0.11843,-0.442326 0.38915,-0.419281 0.60594,-0.361199 2.77134,1.266861 5.15203,2.438219 9.21403,2.849023 0.40037,0 0.62819,0.129659 0.52563,0.624507 -0.44546,2.149256 -1.23175,5.700933 -2.07922,5.425826 -4.66217,-0.705436 -8.93361,-0.610954 -11.86298,3.150341 -2.38113,3.057365 -4.9568,12.048377 -11.77191,12.151937 l 2.22864,-7.679155 c 4.41561,1.084994 9.64488,-10.078516 12.01864,-11.275053 0,0 0.96526,-4.072764 1.12123,-4.886227 z"
           id="path103-2"
           sodipodi:nodetypes="cccscscccc" />
        <path
           style="fill:#ffffff;stroke:none;stroke-width:0.0140844;stroke-linecap:round;stroke-linejoin:round;paint-order:fill markers stroke;stop-color:#000000"
           d="m 121.16989,74.001944 c 0.0396,-0.773184 -0.65673,-0.761733 -0.65673,-0.125837 0,0.222868 -0.79509,7.973394 -4.44524,7.973394 -8.0161,0 -9.97692,-20.081716 -11.4072,-25.673444 -0.13174,-0.492162 -0.88345,-0.351274 -0.88345,0.158943 l 0.11775,6.617123 c 1.7425,6.918951 3.95882,26.205746 12.04198,26.205746 6.25207,0 5.22149,-14.933338 5.23285,-15.155932 z"
           id="path105-1"
           sodipodi:nodetypes="ssscccss" />
        <path
           id="path117-9"
           style="fill:#ffffff;stroke:none;stroke-width:0.0140844;stroke-linecap:round;stroke-linejoin:round;paint-order:fill markers stroke;stop-color:#000000"
           d="m 114.20843,93.094319 c 0.23004,-0.534405 0.49741,-0.755518 0.83529,-0.627552 1.17045,0.443319 2.25489,0.949027 3.3166,1.556288 0.77519,0.443446 0.79011,0.367066 0.51587,0.98857 l -1.92157,4.35514 c -0.36448,0.826115 -0.43192,0.638275 -1.03854,0.29058 -0.96963,-0.55573 -1.98366,-0.91024 -2.977,-1.35665 -0.93441,-0.41966 -0.75035,-0.51486 -0.41035,-1.304633 z"
           sodipodi:nodetypes="sssssssss" />
      </g>
      <g
         id="g262"
         transform="translate(6.2002408,1.4114706)"
         style="fill:#ffffff;stroke-width:0.532325">
        <path
           style="fill:#ffffff;stroke:none;stroke-width:0.0140844;stroke-linecap:round;stroke-linejoin:round;paint-order:fill markers stroke;stop-color:#000000"
           d="m 148.99786,82.236878 c -0.22833,0.307953 -0.49437,0.327339 -0.48724,-0.0072 0,0 0.23345,-3.538855 1.22267,-6.694926 1.69106,-3.062829 4.14073,-5.028068 9.4472,-5.028068 6.19083,0 5.98483,11.352542 4.00905,15.333097 l -0.5914,-0.378373 c 0.49789,-2.498704 -0.52594,-8.229211 -4.90803,-8.19233 -4.07169,0.0343 -6.92166,2.297123 -8.69225,4.967825 z"
           id="path95-1"
           sodipodi:nodetypes="cccsccsc" />
        <path
           style="fill:#ffffff;stroke:none;stroke-width:0.0140844;stroke-linecap:round;stroke-linejoin:round;paint-order:fill markers stroke;stop-color:#000000"
           d="m 164.08938,82.523432 c -0.52417,4.848059 -3.78326,16.449573 -11.44042,16.449573 -5.31827,0 -7.35705,-7.236626 -7.35705,-10.129434 0,-7.830301 2.57028,-14.044598 2.70339,-14.275148 0.6658,-1.153171 0.95218,-0.475483 0.78403,0.152083 0,0 -1.78086,5.850308 -1.76028,9.352617 0.0239,3.825715 2.47366,7.828079 6.54367,7.828079 5.38271,0 9.03542,-6.439816 9.57037,-10.096018 z"
           id="path97-2"
           sodipodi:nodetypes="cssscsscc" />
        <path
           id="path119-8"
           style="fill:#ffffff;stroke:none;stroke-width:0.0140844;stroke-linecap:round;stroke-linejoin:round;paint-order:fill markers stroke;stop-color:#000000"
           d="m 153.43398,81.650746 c 0.23004,-0.534404 0.49741,-0.755518 0.8353,-0.627551 1.17044,0.443319 2.25488,0.949027 3.31659,1.556288 0.77519,0.443445 0.79011,0.367066 0.51588,0.98857 l -1.92158,4.355137 c -0.36447,0.826125 -0.43191,0.638278 -1.03854,0.290581 -0.96962,-0.555726 -1.98365,-0.910242 -2.977,-1.35665 -0.93441,-0.419656 -0.75035,-0.514865 -0.41035,-1.304632 z"
           sodipodi:nodetypes="sssssssss" />
      </g>
      <g
         id="g269"
         transform="translate(4.7423837,-1.5592459)"
         style="fill:#ffffff;stroke-width:0.532325">
        <path
           style="fill:#ffffff;stroke:none;stroke-width:0.0140844;stroke-linecap:round;stroke-linejoin:round;paint-order:fill markers stroke;stop-color:#000000"
           d="m 188.12321,88.205815 c 0,-8.42344 1.51126,-16.093092 3.82049,-18.432288 3.65397,-3.701397 8.98084,-5.810629 10.51368,-5.37831 l 0.60918,-5.465973 c 0,-0.882901 -0.88147,-1.799156 -1.50423,-1.785457 -2.52718,0.05563 -8.76768,2.730733 -11.8654,7.365597 -2.29396,3.432226 -2.80052,15.778754 -2.80052,23.540164 0,1.952054 1.2268,1.84659 1.2268,0.156281 z"
           id="path89-5"
           sodipodi:nodetypes="csccsscc" />
        <path
           style="fill:#ffffff;stroke:none;stroke-width:0.0140844;stroke-linecap:round;stroke-linejoin:round;paint-order:fill markers stroke;stop-color:#000000"
           d="m 201.38967,62.13322 c 0,5.10003 -9.01952,16.860931 -18.44355,18.809254 l -2.40174,7.805206 c 9.74047,-1.95087 19.95242,-10.852492 22.64038,-21.301781 0.58235,-2.263956 -0.0635,-5.72049 -0.11809,-8.516655 z"
           id="path91-1"
           sodipodi:nodetypes="cccscc" />
        <path
           style="fill:#ffffff;stroke:none;stroke-width:0.0140844;stroke-linecap:round;stroke-linejoin:round;paint-order:fill markers stroke;stop-color:#000000"
           d="m 184.01528,74.001944 c 0.0396,-0.773184 -0.65673,-0.761733 -0.65673,-0.125837 0,0.222868 -0.79509,7.973394 -4.44524,7.973394 -8.0161,0 -9.97692,-20.081716 -11.4072,-25.673444 -0.13174,-0.492162 -0.88345,-0.351274 -0.88345,0.158943 l 0.11775,6.617123 c 1.74249,6.918951 3.95882,26.205746 12.04198,26.205746 6.25207,0 5.22149,-14.933338 5.23285,-15.155932 z"
           id="path93-3"
           sodipodi:nodetypes="ssscccss" />
        <path
           style="fill:#ffffff;stroke:none;stroke-width:0.0140844;stroke-linecap:round;stroke-linejoin:round;paint-order:fill markers stroke;stop-color:#000000"
           d="m 213.72633,55.644544 c 0.11843,-0.442326 0.38914,-0.419282 0.60594,-0.3612 2.77134,1.266861 5.15203,2.43822 9.21402,2.84902 0.40038,0 0.62819,0.129659 0.52563,0.62451 -0.44546,2.149253 -1.23171,5.70093 -2.07919,5.425827 -4.66216,-0.705436 -8.93364,-0.610965 -11.863,3.150341 -3.66906,4.711086 -9.50423,17.227461 -19.87676,17.351147 l 3.97131,-8.374955 c 7.96443,0.489309 14.71415,-13.930222 18.38081,-15.778463 0,0 0.96526,-4.072764 1.12124,-4.886227 z"
           id="path101-2"
           sodipodi:nodetypes="cccscscccc" />
        <path
           id="path121-9"
           style="fill:#ffffff;stroke:none;stroke-width:0.0140844;stroke-linecap:round;stroke-linejoin:round;paint-order:fill markers stroke;stop-color:#000000"
           d="m 187.76652,51.553746 c 0.23003,-0.534405 0.4974,-0.755518 0.83529,-0.627552 1.17048,0.443319 2.25492,0.949027 3.3166,1.556288 0.77519,0.443445 0.7901,0.367066 0.5159,0.98857 l -1.92157,4.355137 c -0.36451,0.826125 -0.43192,0.638278 -1.03857,0.290581 -0.96963,-0.555725 -1.98366,-0.910242 -2.97701,-1.356649 -0.93441,-0.419661 -0.75031,-0.514866 -0.41031,-1.304636 z"
           sodipodi:nodetypes="sssssssss" />
      </g>
      <path
         style="fill:#ffffff;stroke:none;stroke-width:0.0140844;stroke-linecap:round;stroke-linejoin:round;paint-order:fill markers stroke;stop-color:#000000"
         d="m 114.35716,71.024866 c 0.72802,0.40495 -0.84803,7.139006 -1.31605,7.275125 -5.03503,-0.37839 -6.47193,10.305446 -10.51146,16.409988 -3.575719,5.403661 -17.017469,4.345106 -17.017469,4.345106 -1.26775,-0.21348 -0.95085,-1.55093 0.0498,-1.55093 C 109.60919,93.18435 103.64505,68.849207 114.35702,71.024866 Z"
         id="path289"
         sodipodi:nodetypes="ccsccc" />
    </g>
    <text
       xml:space="preserve"
       style="font-size:64px;line-height:0;font-family:'Open Sans';-inkscape-font-specification:'Open Sans, Normal';letter-spacing:50px;word-spacing:0px;fill:#cdd7db;fill-opacity:1"
       x="-4694.8848"
       y="-4525.4438"
       id="text1505"><tspan
         sodipodi:role="line"
         id="tspan1503"
         x="-4694.8848"
         y="-4525.4438"
         style="font-size:64px">RAMADAN MUBARAK</tspan></text>
  </g>
</svg>
