<?xml version="1.0" encoding="UTF-8" standalone="no"?>
<svg
   xmlns:dc="http://purl.org/dc/elements/1.1/"
   xmlns:cc="http://creativecommons.org/ns#"
   xmlns:rdf="http://www.w3.org/1999/02/22-rdf-syntax-ns#"
   xmlns:svg="http://www.w3.org/2000/svg"
   xmlns="http://www.w3.org/2000/svg"
   xmlns:sodipodi="http://sodipodi.sourceforge.net/DTD/sodipodi-0.dtd"
   xmlns:inkscape="http://www.inkscape.org/namespaces/inkscape"
   width="1080"
   height="200"
   viewBox="0 0 285.75001 52.916665"
   version="1.1"
   id="svg8"
   inkscape:version="1.0.1 (unknown)"
   sodipodi:docname="Riyadlush-shalihin_CC-BY-4.svg">
  <defs
     id="defs2" />
  <sodipodi:namedview
     id="base"
     pagecolor="#ffffff"
     bordercolor="#666666"
     borderopacity="1.0"
     inkscape:pageopacity="0.0"
     inkscape:pageshadow="2"
     inkscape:zoom="0.37289588"
     inkscape:cx="512.4644"
     inkscape:cy="541.59317"
     inkscape:document-units="px"
     inkscape:current-layer="layer1"
     showgrid="false"
     units="px"
     inkscape:document-rotation="0" />
  <metadata
     id="metadata5">
    <rdf:RDF>
      <cc:Work
         rdf:about="">
        <dc:format>image/svg+xml</dc:format>
        <dc:type
           rdf:resource="http://purl.org/dc/dcmitype/StillImage" />
        <dc:title></dc:title>
      </cc:Work>
    </rdf:RDF>
  </metadata>
  <g
     inkscape:label="Layer 1"
     inkscape:groupmode="layer"
     id="layer1"
     transform="translate(0,-11.249989)">
    <path
       id="path146"
       style="fill:#000000;stroke:#ff0000;stroke-width:0.0264583"
       d="m 136.66569,13.040843 -0.58999,0.0915 c 0,0 0.1,3.92131 0.2,6.04942 0.24,3.76608 1.19998,11.05808 1.23998,11.27252 0.28999,1.50239 0.67999,0.50576 0.64999,-0.0987 l -0.44,-7.78787 c 0.36,-0.23774 4.75992,8.34358 6.2299,13.95046 -0.83999,3.14382 -2.99995,4.60904 -4.79992,5.48614 v -5.08925 c 0,-1.22433 -0.28999,-1.51055 -1.09998,-1.51055 -0.99998,0 -6.0799,3.03042 -7.58987,5.59311 -0.86998,1.47745 -0.88998,4.88448 -0.88998,6.84061 0,0.27336 0,0.7305 0,1.25267 -0.94999,0.48566 -1.57998,0.73848 -1.57998,0.73848 v 0.0858 c 0,-0.90868 0,-1.80188 0,-2.61284 0,0 0,-5.1e-4 0,-5.1e-4 0,-0.49522 -0.49999,-0.43505 -0.49999,-0.0243 0,2.80367 -1.00998,4.89803 -3.31994,4.89803 -4.96991,0 -8.38985,-6.08749 -10.51982,-22.01171 -0.1,-0.68188 -0.58999,-0.79673 -0.57999,0.0574 v 4.66756 c 1.89997,12.99762 4.97992,22.51919 11.4898,22.51919 1.35998,0 2.18997,-0.84696 2.68996,-2.11829 0.78998,-0.24897 1.53997,-0.53405 2.24996,-0.84802 0,1.67848 0,3.11924 0,3.19782 0.14,0.86728 0.33999,0.68193 0.54999,0.19328 0,-0.0768 0,-1.65624 0,-3.64071 2.74995,-1.31782 4.84991,-3.08803 6.32989,-4.94765 1.97996,-0.66765 3.51994,-1.60933 4.69992,-2.67744 l 0.1,4.90114 c 0.1,5.73476 2.72995,10.90767 8.17985,10.90767 5.18991,0 7.96987,-6.75524 7.96987,-13.23318 v -6.22254 c 0,-7.35367 -4.21993,-14.55185 -7.06988,-19.42885 l -0.47999,0.10026 c -0.14,8.11279 0.39999,15.97003 0.77998,23.93723 0.1,1.21382 0.71999,0.8457 0.68999,-0.0589 l -0.66999,-16.85115 c 1.22998,1.24705 5.9599,10.88009 5.9599,15.49719 0,5.33725 -2.93995,10.18727 -7.92986,10.18727 -4.88992,0 -6.63989,-4.84737 -6.90988,-10.29632 2.66995,-2.77418 3.23994,-6.18099 3.22994,-7.89639 v -3.42831 c 0,-5.51864 -5.97989,-16.13058 -8.17986,-21.64118 z m -38.889321,0.32247 -0.519991,0.24341 c -0.309995,3.92293 0.189997,6.94208 0.329994,10.34592 0,0.70541 0.549991,0.66767 0.549991,-0.032 v -4.81121 c 2.639957,2.25037 5.429907,10.00855 5.429907,11.22755 0,1.29304 -4.899917,4.94167 -5.019915,5.03602 0,0.0236 -0.1,0.0529 -0.139997,0.076 v 4.7952 c 0,0.16981 0,0.46201 0.409993,0.24133 3.149949,-1.61891 7.149879,-4.13028 9.979829,-5.01121 -1.47998,3.37452 -5.8199,8.32997 -10.109827,8.32997 -4.60992,0 -4.959914,-7.12214 -7.109877,-10.84565 -0.189996,-0.32517 -0.52999,-0.17862 -0.52999,-0.005 v 4.95333 c 0,0 0.279995,0.82507 0.739987,2.01131 -0.839986,0.89611 -2.729953,2.64074 -4.62992,2.64074 -2.409958,0 -5.18991,-2.97053 -5.369906,-3.15339 -0.249996,-0.24964 -0.539991,-0.1327 -0.539991,0.34263 v 5.12438 c 0,0 1.469974,1.52974 3.44994,2.33895 0.879985,0.63231 1.829968,1.43534 2.549956,2.80146 -0.649989,2.34777 -2.569956,6.20446 -6.749883,6.20446 -6.30989,0 -6.839881,-6.77649 -6.839881,-8.17908 0,-5.94351 11.649797,-17.98965 11.649797,-24.07572 0,-1.16253 0,-3.06932 0,-3.26037 0,-0.58417 -0.409993,-0.71219 -0.389993,0.0227 v 1.25009 c 0.149997,6.96494 -11.899793,15.99031 -11.909793,26.1475 0,1.07097 -1.279978,13.25901 7.869863,13.25901 4.589921,0 7.319873,-5.81838 7.149876,-8.84881 l -0.329994,-4.9032 c 2.149963,-0.36167 4.839916,-2.2104 5.229909,-5.03344 1.449975,3.04873 3.549938,6.45923 5.7499,6.45923 6.799877,0 11.789797,-8.63104 11.819797,-13.48123 v -3.97455 c 0,-0.49992 -0.11,-1.45835 -1.30998,-1.45835 -0.90998,0 -2.74995,0.88142 -4.78992,1.98908 0.2,-0.80488 0.31,-1.67257 0.31,-2.60095 0,-7.13425 -6.959881,-16.16642 -6.959881,-16.16642 z m 75.678681,7.12949 c -0.1,-0.0131 -0.19999,0.13847 -0.18999,0.50593 v 1.25061 c 0.15,6.96492 -11.4098,15.55568 -11.4298,25.71289 0,1.07095 -0.44,13.69723 7.89986,13.69723 4.59992,0 6.61988,-5.81758 6.63988,-8.85295 v -3.60453 c 0.75999,0.23701 1.60998,0.38923 2.52996,0.40205 0,1.93495 0,3.65452 0,3.74614 0.14,0.86725 0.33999,0.68247 0.55999,0.19379 0,-0.0839 0,-1.83378 0,-3.95543 4.85992,-0.41014 9.10984,-7.79804 9.12984,-10.8932 v -5.54039 c 0,-1.22434 -0.27999,-1.51055 -1.09998,-1.51055 -0.99998,0 -6.07989,3.03093 -7.57987,5.59363 -0.86998,1.47744 -0.89998,4.88395 -0.89998,6.84009 0,0.0816 0,0.22893 0,0.33384 -0.1,0.005 -0.18,0.01 -0.26,0.01 -3.73993,0 -6.21989,-2.966 -6.33989,-3.049 -0.13999,-0.0999 -0.35999,-0.0705 -0.35999,0.23875 v 4.90372 c 0.44999,0.45393 1.10998,1.04055 1.95996,1.58135 0.57,0.76639 1.05999,1.54903 1.48998,2.54927 -0.59999,2.36222 -2.21996,5.84891 -6.18989,5.84891 -6.31989,0 -6.66989,-7.21058 -6.66989,-8.61316 0,-5.94351 10.95981,-17.55866 10.95981,-23.64473 0,-1.16254 0,-3.06982 0,-3.26088 0,-0.29209 -0.1,-0.47005 -0.19999,-0.48319 z m 15.72973,3.09655 c -0.11,3.6e-4 -0.19999,0.0408 -0.19999,0.0408 0,0 0,3.0242 0,5.05772 3.99993,8.21491 3.29994,24.43437 10.28982,24.43437 3.73994,0 5.07991,-3.5279 5.05991,-5.21947 l -0.1,-4.2748 c 0,-0.58345 -0.47999,-0.59275 -0.47999,-0.0408 0,1.43389 -1.61997,4.19154 -4.58992,4.35387 -6.14989,0.33596 -7.20988,-19.36432 -9.73983,-24.15066 -0.1,-0.16158 -0.22,-0.20139 -0.32,-0.20103 z m -9.66983,1.16068 c -0.17,-0.0126 -0.34999,0.0155 -0.42999,0.22842 l -1.54998,4.36162 c -0.1,0.18178 -0.1,0.38135 0.25,0.42221 1.36998,0.16272 2.51996,0.72792 3.67994,1.24492 0.14999,0.0665 0.39999,0.11346 0.46999,-0.0693 l 1.63997,-4.39779 c 0.1,-0.20687 0.1,-0.41875 -0.17,-0.50955 -1.11998,-0.4629 -2.10996,-1.02179 -3.70993,-1.2599 -0.1,-0.008 -0.12,-0.0165 -0.18,-0.0207 z m 8.01986,12.11745 c -1.12998,3.31984 -4.53992,6.80495 -7.73987,7.4468 0.1,-0.63404 0.22,-1.20734 0.37,-1.65783 0.83998,-2.40862 5.6599,-4.94853 7.36987,-5.78897 z m 24.67958,3.172 c -2.30996,0 -3.95994,7.26182 -4.96992,10.92575 -2.63995,9.5884 -11.2198,8.92002 -14.55975,9.9263 -0.88998,0.26991 -0.78999,0.70209 -0.1,0.73899 14.11976,0.75488 14.28976,-2.7657 16.29972,-10.14954 1.99997,-7.38384 3.91994,-6.16053 3.91994,-6.16053 v -5.1647 0 c 0,0 0,-0.11627 -0.57999,-0.11627 z m -74.10872,0.57621 c -1.22998,3.90384 -5.24991,6.66919 -7.83987,8.0969 0.1,-0.90651 0.25,-1.71054 0.45,-2.29605 0.83998,-2.41958 5.6999,-4.97244 7.38987,-5.80085 z m -58.938978,6.22822 c -0.179997,-0.0126 -0.359994,0.0161 -0.429992,0.22894 l -1.559973,4.36162 c -0.1,0.18179 -0.1,0.38082 0.259995,0.42168 1.359976,0.16275 2.519956,0.72844 3.679936,1.24544 0.149998,0.0665 0.399993,0.11346 0.459992,-0.0692 l 1.639972,-4.39831 c 0.1,-0.20689 0.1,-0.41874 -0.159997,-0.50955 -1.119981,-0.4629 -2.109964,-1.02129 -3.719936,-1.25939 0,-0.008 -0.109998,-0.017 -0.169997,-0.0212 z m 19.959653,6.0551 c -0.1,-0.003 -0.1,-3.2e-4 -0.159997,0.007 -2.199962,0.281 -4.259926,0.18266 -6.869881,1.60925 l -1.569972,4.40348 c -0.159998,0.2728 0,0.66414 0.339994,0.41859 0.729987,-0.51321 3.589937,-1.51536 6.479887,-1.40512 0.219996,0.009 0.309995,0.0288 0.409993,-0.23307 l 1.549973,-4.25258 c 0.1,-0.2789 0.129998,-0.52992 -0.179997,-0.54779 z m 90.508425,2.26092 c 0,-0.003 -0.1,-3.2e-4 -0.14999,0.007 -2.19997,0.281 -4.25993,0.18265 -6.87988,1.60926 l -1.56998,4.40347 c -0.14999,0.27279 0,0.66416 0.34,0.4186 0.73998,-0.51323 3.58993,-1.5159 6.47988,-1.40564 0.23,0.009 0.32,0.0293 0.41,-0.23256 l 1.55997,-4.25257 c 0.1,-0.27889 0.13,-0.52993 -0.19,-0.54779 z" />
  </g>
</svg>
